<svg xmlns="http://www.w3.org/2000/svg" viewBox="-0.5 -0.5 768 768" shape-rendering="geometricPrecision" text-rendering="geometricPrecision" image-rendering="optimizeQuality" fill-rule="evenodd" clip-rule="evenodd" key="mt3zjaj"><path fill="#fefefe" d="M-.5-.5h768v768H-.5z" opacity="1" key="4yqo78t"/><path fill="#0343e0" d="M362.5 142.5q127-.25 254 .5 52.94 12.075 48.5 66.5a60.5 60.5 0 0 1-6 17 572.4 572.4 0 0 0-49.5 79.5q36.46 111.782-27.5 210.5-66.171 94.236-181.5 105.5-127 1-254 0-49.265-14.268-45.5-65.5a86 86 0 0 1 6-17 1496 1496 0 0 0 37-54 192 192 0 0 0 12.5-23q-41.582-128.21 41.5-234 65.27-75.262 164.5-86" opacity="1" key="nq2huln"/><path fill="#fdfdfe" d="M367.5 185.5q122.5-.25 245 .5 15.306 6.563 7.5 21.5l-11 16a2053 2053 0 0 1-44 74 25.2 25.2 0 0 0 0 10q42.373 115.942-38 209-53.388 55.566-130.5 62.5-121.5 1-243 0-11.677-4.992-8.5-17.5a982 982 0 0 0 50-77l6-14a49.2 49.2 0 0 0 0-14q-42.102-114.064 36-207 53.513-55.88 130.5-64" opacity="1" key="0y0s1gt"/><path fill="#0544e0" d="M360.5 221.5q32.792 1.517 24.5 33-5.487 9.626-16.5 11.5-32.779 4.146-59 24l-16 14q-16.226 7.077-28.5-5.5-9.456-14.946 1-29 39.606-38.928 94.5-48m63 8q13.186-1.418 25 4.5 97.424 46.98 98.5 155.5-8.996 25.123-33.5 14.5-6.477-4.972-9.5-12.5-2.3-90.283-86.5-122.5-20.211-23.363 6-39.5" opacity="1" key="fo2kvcd"/><path fill="#0443e0" d="M370.5 302.5q64.778-4.752 91.5 54 17.632 63.627-36.5 100.5-58.781 28.883-104.5-17.5-30.596-39.001-14-86 19.12-41.382 63.5-51" opacity="1" key="mza5mbp"/><path fill="#0844e0" d="M240.5 320.5q25.574-3.632 29 21.5a534 534 0 0 1-5.5 27.5l-1 31q-6.797 20.783-28.5 16.5-13.342-5.339-15.5-19.5-2.457-32.805 8-64 4.614-8.867 13.5-13" opacity="1" key="q3n1sgs"/><path fill="#fdfdfe" d="M374.5 347.5q34.466-4.158 46.5 28 4.025 48.473-44.5 47.5-33.649-10.187-30.5-45.5 5.93-23.175 28.5-30" opacity="1" key="l1a5upk"/><path fill="#0644e0" d="M500.5 435.5q23.452-1.036 27 22a35 35 0 0 1-1.5 9q-13.84 23.858-34.5 42.5-17.661 10.761-31.5-4.5-7.469-14.394 1-28 15.236-12.735 25-30 5.859-7.644 14.5-11" opacity="1" key="6g4mws8"/><path fill="#0544e0" d="M316.5 492.5a85 85 0 0 1 13 .5q33.315 15.913 70 11.5 20.879.626 23 21.5-1.152 16.655-17 22-49.341 6.91-94-15-16.09-14.089-5.5-32.5a68 68 0 0 1 10.5-8" opacity="1" key="292v1pt"/></svg>