<svg xmlns="http://www.w3.org/2000/svg" id="Layer_1" data-name="Layer 1" viewBox="0.02 117 1000.08 766" key="c0ng5oe"><defs key="c4zlnrx"><style key="s9xhhu1">.cls-1{fill:#fd4b2d}</style></defs><path d="M546.7 275.3h35v100h-35zM637.7 271.1h35v78.2h-35zM127.6 385.3a127.6 127.6 0 0 0-112 67h59.2c26.3-22.8 64.4-29.4 92 0h62.8c-24.5-33.2-61.2-67-102-67" key="jd2xrff"/><path d="M212.4 512.5C130.6 683.6-13 537.8 74.8 452.2H15.5c-46.5 81.1 17.8 190.5 112.1 188 73 0 133.2-108.3 133.2-127.4 0-8.5-11.7-34.3-31.2-60.6h-62.8c20.8 18.9 39 46.4 45.6 60.3m2.2-5" key="0f35b00"/><path d="M1000 274.1V726c0 86.6-70.5 157-157.1 157h-66.7V729.2H458V883h-66.7c-86.6 0-157-70.5-157-157V583.7H739V312.1H495.2v152.7h-261V274a151 151 0 0 1 1-18 154 154 0 0 1 3.9-21.1 196 196 0 0 1 1.9-6.7 14 14 0 0 1 .5-1.6l1-3.2 1.2-3.3 1.4-3.6c.4-1.2 1-2.3 1.5-3.5a159 159 0 0 1 14.2-26.5l.2-.2a196 196 0 0 1 13-16.6l4.7-5.1.2-.2a37 37 0 0 1 2.7-2.7 160 160 0 0 1 18.6-15.6l5.6-3.8 6.4-3.9a143 143 0 0 1 16.7-8.5 153 153 0 0 1 18.4-6.6 144 144 0 0 1 10.8-2.8 158.5 158.5 0 0 1 21.3-3.1l3.1-.2h1.5c2.4-.2 4.8-.2 7.2-.2H843c2.4 0 4.8 0 7.2.2h1.5l3 .2a158 158 0 0 1 21.4 3l3.6.9c2.5.6 4.9 1.2 7.3 2a153 153 0 0 1 18.3 6.6 150 150 0 0 1 23.1 12.4l5.6 3.8a157.5 157.5 0 0 1 21.5 18.5l4.7 5a311 311 0 0 1 8.6 10.5l4.4 6.2.2.2a159.7 159.7 0 0 1 14.3 26.5l1.4 3.5 1.4 3.6 1.1 3.3c.3 1.2.7 2 1.1 3.2a16 16 0 0 1 .5 1.6l2 6.7A156 156 0 0 1 999 256a151 151 0 0 1 1 18Z" key="qysnoit"/><path d="M973.3 186.6H260.8A157 157 0 0 1 391.2 117h451.7a157 157 0 0 1 130.4 69.5ZM999 256.1H235.1a155.4 155.4 0 0 1 25.6-69.5h712.5a155.3 155.3 0 0 1 25.6 69.5ZM1000 274.1v51.5H738.9v-13.5H495.2v13.5H234.1v-51.5a153 153 0 0 1 1-18H999a151 151 0 0 1 1.1 18ZM234.1 325.6h261.1v69.5H234.1zM738.9 325.6H1000v69.5H738.9zM234.1 395.2h261.1v69.5H234.1zM738.9 395.2H1000v69.5H738.9z" key="osw9zdo"/></svg>