<svg xmlns="http://www.w3.org/2000/svg" viewBox="0 0 18 18" key="cz7mqiv"><defs key="hjcpbzg"><radialGradient id="a" cx="-105.01" cy="-10.41" r="5.95" gradientTransform="matrix(1.036 0 0 1.027 117.74 19.64)" gradientUnits="userSpaceOnUse" key="tfs1wc2"><stop offset=".18" stop-color="#5ea0ef" key="1l9p1iz"/><stop offset="1" stop-color="#0078d4" key="uv84wtr"/></radialGradient><clipPath id="b" key="w1djrgq"><path fill="none" d="M14.97 7.53a6.14 6.14 0 1 1-7.4-4.54 6.14 6.14 0 0 1 7.4 4.54" key="t8y6bhz"/></clipPath></defs><path fill="#50e6ff" d="M2.95 5.27a.18.18 0 0 1-.17-.18 2.01 2.01 0 0 0-2.01-2 .18.18 0 0 1-.18-.18.18.18 0 0 1 .18-.18 2.01 2.01 0 0 0 2-2.01.18.18 0 0 1 .18-.18.18.18 0 0 1 .18.18 2.01 2.01 0 0 0 2 2 .18.18 0 0 1 .19.18.18.18 0 0 1-.18.18A2.01 2.01 0 0 0 3.13 5.1a.18.18 0 0 1-.18.18ZM15.61 17.46a.14.14 0 0 1-.14-.15 1.6 1.6 0 0 0-1.6-1.6.14.14 0 0 1-.15-.14.14.14 0 0 1 .14-.14 1.6 1.6 0 0 0 1.61-1.61.14.14 0 0 1 .14-.14.14.14 0 0 1 .14.14 1.6 1.6 0 0 0 1.6 1.6.14.14 0 1 1 0 .29 1.6 1.6 0 0 0-1.6 1.6.14.14 0 0 1-.14.15" key="ssqnt4a"/><path fill="url(#a)" d="M14.97 7.53a6.14 6.14 0 1 1-7.4-4.54 6.14 6.14 0 0 1 7.4 4.54" key="h0zapfh"/><g fill="#f2f2f2" clip-path="url(#b)" key="9sk0bu0"><path d="M5.7 13.12a1.64 1.64 0 1 0 .01-3.28 1 1 0 0 0 .01-.14 1.65 1.65 0 0 0-1.66-1.64H2.83a6.25 6.25 0 0 0 1.6 5.06ZM15.05 7.82l-.01-.05a6 6 0 0 0-1.4-2.88 2 2 0 0 0-.3-.09 1.8 1.8 0 0 0-2.3 1.66 2 2 0 0 0-.2 0 1.74 1.74 0 0 0-.58 3.37 1.5 1.5 0 0 0 .54.1h2.03a13.5 13.5 0 0 0 2.22-2.11" key="k7z2fv2"/></g><path fill="#50e6ff" d="M17.2 3.83c-.64-1.05-2.1-1.45-4.16-1.15a14.6 14.6 0 0 0-2.09.45 6.5 6.5 0 0 1 1.53.77l.72-.15a7.5 7.5 0 0 1 1.1-.09 2.19 2.19 0 0 1 1.96.73c.38.63.06 1.73-.89 3a16.7 16.7 0 0 1-4.75 4.05A16.8 16.8 0 0 1 4.8 13.7c-1.56.23-2.68 0-3.06-.64s-.07-1.73.88-3c.12-.15.15-.23.28-.38a6.3 6.3 0 0 1 .03-1.63 11.6 11.6 0 0 0-1.17 1.37C.52 11.08.18 12.57.8 13.62a3.17 3.17 0 0 0 2.9 1.24 8.4 8.4 0 0 0 1.25-.1 17.9 17.9 0 0 0 6.22-2.4 17.8 17.8 0 0 0 5.06-4.33c1.24-1.66 1.58-3.15.95-4.2Z" key="rg9xsqw"/></svg>