<svg xmlns="http://www.w3.org/2000/svg" fill="none" viewBox="0 0 120 90" key="ajiwmlz"><rect width="100%" height="100%" fill="#39134c" key="ege027q"/><path fill="#fff" d="M38.13 24.702H22.444c-2.091 0-3.921-1.833-3.921-3.928 0-2.096 1.83-3.929 3.921-3.929H38.13c2.091 0 3.921 1.834 3.921 3.929s-1.83 3.928-3.921 3.928M38.13 56.13H22.444c-2.091 0-3.921-1.832-3.921-3.928s1.83-3.928 3.921-3.928H38.13c2.091 0 3.921 1.833 3.921 3.928 0 2.096-1.83 3.929-3.921 3.929M38.13 71.845H22.444c-2.091 0-3.921-1.833-3.921-3.928 0-2.096 1.83-3.929 3.921-3.929H38.13c2.091 0 3.921 1.833 3.921 3.929s-1.83 3.928-3.921 3.928M69.501 40.417H53.816c-2.092 0-3.922-1.834-3.922-3.929s1.83-3.928 3.922-3.928H69.5c2.092 0 3.922 1.833 3.922 3.928s-1.83 3.929-3.922 3.929M69.501 56.13H53.816c-2.092 0-3.922-1.832-3.922-3.928s1.83-3.928 3.922-3.928H69.5c2.092 0 3.922 1.833 3.922 3.928 0 2.096-1.83 3.929-3.922 3.929M100.873 24.702H85.187c-2.091 0-3.921-1.833-3.921-3.928 0-2.096 1.83-3.929 3.921-3.929h15.686c2.091 0 3.921 1.834 3.921 3.929s-1.83 3.928-3.921 3.928M100.873 40.417H85.187c-2.091 0-3.921-1.834-3.921-3.929s1.83-3.928 3.921-3.928h15.686c2.091 0 3.921 1.833 3.921 3.928s-1.83 3.929-3.921 3.929M100.873 71.845H85.187c-2.091 0-3.921-1.833-3.921-3.928 0-2.096 1.83-3.929 3.921-3.929h15.686c2.091 0 3.921 1.833 3.921 3.929s-1.83 3.928-3.921 3.928" key="6qrr2g7"/></svg>