<svg xmlns="http://www.w3.org/2000/svg" xmlns:xlink="http://www.w3.org/1999/xlink" xml:space="preserve" enable-background="new 0 0 72.125 22.875" viewBox="0 0 500 145.653" key="t2fx1xx"><g transform="matrix(7.06516 0 0 7.06516 -14.477 -6.714)" key="7f9mxb3"><defs key="tycy3te"><path id="a" d="M2.048.95H72.82v20.618H2.048z" key="0jblmc6"/></defs><clipPath id="c" key="n33lby9"><use xlink:href="#a" width="100%" height="100%" overflow="visible" key="3zskc0a"/></clipPath><defs key="lnmh846"><filter id="b" width="39.466" height="18.979" x="16.952" y=".95" filterUnits="userSpaceOnUse" key="433l502"><feFlood result="back" key="f7o5bsw"/><feBlend in="SourceGraphic" in2="back" key="tbca5c1"/></filter></defs><mask id="g" width="39.466" height="18.979" x="16.952" y=".95" maskUnits="userSpaceOnUse" key="d6h4j4b"><g filter="url(#b)" key="eo3awma"><defs key="66ocikh"><path id="d" d="M.885-1.914h73.516v30.021H.885z" transform="rotate(-179.99 37.643 13.097)" key="z1gwve1"/></defs><clipPath id="f" clip-path="url(#c)" key="yz0ldfq"><use xlink:href="#d" width="100%" height="100%" overflow="visible" key="gwgyiis"/></clipPath><linearGradient id="e" x1="-284.082" x2="-283.083" y1="272.799" y2="272.799" gradientTransform="matrix(29.0984 0 0 -29.0984 8282.156 7951.114)" gradientUnits="userSpaceOnUse" key="v7armpy"><stop offset="0" stop-color="#231f20" key="p8ig0kq"/><stop offset=".852" stop-color="#f5f5f6" key="ymv53ib"/><stop offset="1" stop-color="#fff" key="ypqbpht"/></linearGradient><path d="M.883-1.921h73.52v30.035H.883z" clip-path="url(#f)" fill="url(#e)" key="ie3px0j"/></g></mask><g clip-path="url(#c)" mask="url(#g)" key="bnxag2e"><defs key="ia66xl4"><path id="h" d="M16.952.95h39.465v18.979H16.952z" key="d8ciehg"/></defs><clipPath id="i" key="vu9w6vw"><use xlink:href="#h" width="100%" height="100%" overflow="visible" key="ucv1yab"/></clipPath><g clip-path="url(#i)" key="kgwagz3"><defs key="e3ogiks"><path id="j" d="M16.952.95h39.465v18.979H16.952z" key="qdvs4qz"/></defs><clipPath id="k" key="kb9ps33"><use xlink:href="#j" width="100%" height="100%" overflow="visible" key="yo1723u"/></clipPath><path d="M56.418 8.447C52.112 3.802 45.588.756 38.443.96c-16.699.476-21.578 14.39-21.49 18.97.893-9.04 9.261-17.615 21.202-17.527 6.819.052 13.037 3.28 16.617 7.582.275-.794.992-1.338 1.646-1.538" clip-path="url(#k)" fill="#bbbdbf" key="c4xgpkp"/></g></g><path d="M2.373 21.317a.324.324 0 0 1-.324-.323V9.938c0-.178.145-.324.324-.324h3.636l2.325-.001c1.729.004 3.77.976 3.771 3.209 0 1.245-.887 1.905-1.32 2.321.663.336 1.554 1.323 1.555 2.752.001 1.119-.436 1.98-1.156 2.556-.721.575-1.722.866-2.85.866H5.527Zm1.768-5.073a.326.326 0 0 0-.323.324v2.655c0 .178.146.325.323.325h4.193c1.551-.009 2.231-.569 2.235-1.653-.007-1.012-.5-1.641-2.235-1.651zm4.192-1.771c1.125-.001 1.998-.65 2.001-1.65-.003-.891-.838-1.433-2.001-1.436H4.141a.325.325 0 0 0-.323.323v2.439c0 .178.146.323.323.323zM14.898 16.89c0 1.104.209 2.273.96 3.17.75.896 2.04 1.508 4.174 1.506h.001c2.133 0 3.423-.61 4.173-1.506.751-.896.96-2.066.96-3.17V9.938a.324.324 0 0 0-.324-.324H23.72a.325.325 0 0 0-.324.324v6.952c-.009 1.687-.677 2.894-3.364 2.903-2.687-.01-3.354-1.217-3.364-2.903V9.938a.325.325 0 0 0-.324-.324h-1.122a.325.325 0 0 0-.324.324zM37.302 18.051c0 .178-.09.208-.199.069l-6.447-8.25a.75.75 0 0 0-.523-.257h-1.097a.325.325 0 0 0-.324.324v11.059c0 .178.145.324.324.324h1.123a.325.325 0 0 0 .324-.324v-8.112c0-.179.089-.21.2-.069l6.445 8.249c.11.142.345.254.524.254h1.097a.324.324 0 0 0 .324-.323V9.938a.325.325 0 0 0-.324-.324h-1.123a.324.324 0 0 0-.323.324v8.113zM57.928 13.937h-1.1219999999999999a.324.324 0 0 0-.324.324v6.734c0 .179.147.325.325.325h1.1199999999999999c.18 0 .326-.146.326-.325v-6.734a.326.326 0 0 0-.325-.324M63.367 19.548a.325.325 0 0 1-.324-.324V16.43c0-.179.146-.324.324-.324h4.439a.325.325 0 0 0 .324-.323v-1.126a.326.326 0 0 0-.324-.324h-4.439a.324.324 0 0 1-.324-.323v-2.3c0-.177.146-.323.324-.323h6.758a.325.325 0 0 0 .322-.324V9.938a.324.324 0 0 0-.322-.324h-8.528a.325.325 0 0 0-.324.324v11.058c0 .179.146.325.324.325h8.821a.325.325 0 0 0 .324-.325v-1.124a.324.324 0 0 0-.324-.323h-7.051zM48.339 11.089c1.733 0 2.63.728 3.213 1.295l.126.12a.32.32 0 0 0 .456-.002l.779-.801a.324.324 0 0 0-.007-.457l-.123-.111c-.778-.716-2.203-1.817-4.615-1.817-1.867 0-3.467.686-4.602 1.791a5.95 5.95 0 0 0-1.801 4.295c0 1.985.814 3.517 2.021 4.549 1.202 1.031 2.794 1.564 4.351 1.564 3.446-.004 4.87-1.529 5.186-1.931l.045-.056a1 1 0 0 1 .066-.086c.004-.004.006-.024.006-.046v-3.982a.325.325 0 0 0-.324-.323h-4.131a.324.324 0 0 0-.324.323v1.078c0 .179.146.324.324.324h2.353c.179 0 .325.146.325.323v1.244c0 .18-.038.356-.084.396l-.064.048q-.038.03-.08.058c-.468.338-1.373.858-3.218.858-2.913-.001-4.678-2.016-4.679-4.264.001-2.405 1.75-4.388 4.801-4.39" clip-path="url(#c)" key="so52e5i"/><path d="M57.367 9.506a1.665 1.665 0 1 0 0 3.33 1.665 1.665 0 0 0 0-3.33" clip-path="url(#c)" fill="#00a3e3" key="9ip5b07"/><path d="M72.162 10.151q.132 0 .193.026.11.044.109.18 0 .095-.069.141a.3.3 0 0 1-.103.034.17.17 0 0 1 .123.07.2.2 0 0 1 .037.11v.053l.002.053.006.037.006.009h-.116l-.002-.007-.001-.008-.003-.023v-.056q0-.124-.067-.163-.04-.024-.139-.023h-.099v.281h-.125v-.713h.248zm.133.113a.3.3 0 0 0-.149-.026h-.106v.258h.112a.3.3 0 0 0 .119-.016q.073-.03.073-.111 0-.08-.049-.105m.336.707a.62.62 0 0 1-.457.19.62.62 0 0 1-.455-.19.63.63 0 0 1-.188-.461q0-.268.189-.458a.61.61 0 0 1 .453-.189q.27 0 .457.189a.62.62 0 0 1 .189.458q.001.27-.188.461m-.848-.857a.54.54 0 0 0-.162.396q0 .232.16.397a.53.53 0 0 0 .393.165.53.53 0 0 0 .394-.165.54.54 0 0 0 .161-.397.54.54 0 0 0-.161-.396.53.53 0 0 0-.394-.165.53.53 0 0 0-.391.165" clip-path="url(#c)" key="jq3idf9"/></g></svg>