<svg xmlns="http://www.w3.org/2000/svg" fill="none" viewBox="0 0 19.29 24" key="ihta25l"><path fill="url(#a)" d="m19.116 3.16-2.88 2.881a.57.57 0 0 1-.701.084 6.854 6.854 0 0 0-10.39 5.647 6.87 6.87 0 0 0 .979 3.764.57.57 0 0 1-.084.699l-2.88 2.88a.57.57 0 0 1-.865-.063A11.994 11.994 0 0 1 19.051 2.295a.57.57 0 0 1 .065.866" key="0wtugpq"/><path fill="#1F0256" d="m19.114 20.829-2.881-2.88a.57.57 0 0 0-.7-.085 6.85 6.85 0 0 1-7.081 0 .57.57 0 0 0-.7.084l-2.881 2.88a.57.57 0 0 0 .062.877 11.99 11.99 0 0 0 14.114 0 .57.57 0 0 0 .066-.876M11.997 15.422a3.427 3.427 0 1 0 0-6.854 3.427 3.427 0 0 0 0 6.854" key="nkpn0hl"/><defs key="395me5x"><linearGradient id="a" x1="16.409" x2="-7.885" y1="-1.759" y2="22.537" gradientUnits="userSpaceOnUse" key="aahdxuy"><stop stop-color="#17CCFC" key="soy0lk9"/><stop offset=".5" stop-color="#5D31FF" key="xpc796q"/><stop offset="1" stop-color="#F35AFF" key="5fihlb0"/></linearGradient></defs></svg>