<svg xmlns="http://www.w3.org/2000/svg" fill="none" viewBox="0.5 0.83 28 18.34" key="zpsq6m7"><path fill="#3448C5" fill-rule="evenodd" d="M19.842 2.657a9.37 9.37 0 0 1 3.37 4.699 6.074 6.074 0 0 1 5.288 5.982c0 2.537-1.605 4.64-4.189 5.486l-.116.037v-1.87c1.607-.677 2.552-2.016 2.552-3.653a4.3 4.3 0 0 0-4.21-4.284h-.696l-.167-.663a7.59 7.59 0 0 0-7.318-5.802 7.45 7.45 0 0 0-6.78 4.277l-.213.439-.487.05a5.17 5.17 0 0 0-4.493 4.005 5.175 5.175 0 0 0 2.338 5.548v1.972H4.71l-.174-.079a6.93 6.93 0 0 1-3.98-7.177 6.94 6.94 0 0 1 5.652-5.948A9.19 9.19 0 0 1 14.356.832a9.36 9.36 0 0 1 5.486 1.825m-8.501 16.38-.385-.384a1.4 1.4 0 0 1-.406-.98v-5.801a.08.08 0 0 1 .079-.077h.659a.077.077 0 0 0 .053-.13l-2.577-2.58a.076.076 0 0 0-.11 0l-2.578 2.58a.08.08 0 0 0-.016.084.08.08 0 0 0 .071.046h.65a.076.076 0 0 1 .076.077v5.904a1.393 1.393 0 0 0 1.392 1.392h3.038a.077.077 0 0 0 .054-.13m5.314-.384.387.385a.08.08 0 0 1 .015.084.08.08 0 0 1-.07.046h-3.032a1.39 1.39 0 0 1-1.392-1.392v-4.412a.08.08 0 0 0-.076-.079h-.657a.08.08 0 0 1-.069-.047.08.08 0 0 1 .016-.083l2.577-2.576a.077.077 0 0 1 .109 0l2.579 2.571a.08.08 0 0 1 .015.084.08.08 0 0 1-.07.046h-.66a.08.08 0 0 0-.076.08v4.313c0 .367.145.72.404.98m6.086.385-.385-.385a1.4 1.4 0 0 1-.406-.98v-2.828a.077.077 0 0 1 .076-.077h.662a.077.077 0 0 0 .053-.132l-2.58-2.579a.074.074 0 0 0-.106 0l-2.58 2.579a.077.077 0 0 0 .054.132h.65a.076.076 0 0 1 .076.076v2.932a1.39 1.39 0 0 0 1.392 1.392h3.04a.077.077 0 0 0 .054-.13" clip-rule="evenodd" key="5e0t8j3"/></svg>