<svg xmlns="http://www.w3.org/2000/svg" viewBox="0 0 192.76 192.76" key="7tnc3hb"><path fill="#fff" fill-rule="evenodd" d="M0 0h192.756v192.756H0z" clip-rule="evenodd" key="92trj86"/><path fill="#00678c" fill-rule="evenodd" d="M176.883 92.439c-1.789 1.375-2.793 2.164-4.236 3.237l-1.07.766c1.512.537 3.752 1.172 7.623-.81l-1.02 3.257c-7.293 3.217-7.531-1.374-13.777.095 2.049-1.577 3.842-3.412 5.133-4.386a313 313 0 0 0 4.068-3.127c.861-.667 1.254-1.09 1.393-1.938.098-.746-.674-1.437-1.904-1.458-1.336-.003-2.465.381-2.652 1.727q-.017.127-.031.258c-1.262-.036-4.053.006-4.053.006l-.014-.06c.008-.085.018-.167.029-.256.357-2.541 3.658-4.184 7.037-4.213 3.346.018 6.012 1.591 5.795 3.864-.167 1.221-1.091 2.08-2.321 3.038m-57.658 12.882c.373 0 .545.051.545.301v.454c0 .248-.172.3-.545.3h-2.721v-1.055zm-3.911 3.131h1.189v-1.431h1.146l2.098 1.431h1.734l-2.398-1.431h.686c.797 0 1.168-.206 1.168-.73v-.89c0-.527-.371-.732-1.168-.732h-4.455zm9.182-3.109h3.992v2.396h-3.992zm-1.209.22v1.994c0 .712.314.895 1.291.895h3.83c.979 0 1.289-.183 1.289-.895v-1.994c0-.713-.311-.895-1.289-.895h-3.83c-.976.001-1.291.183-1.291.895m8.024-.894h1.25l1.322 2.538 1.381-2.538h.845l1.412 2.538 1.26-2.538h1.078l-2.005 3.783h-.817l-1.432-2.617-1.451 2.617h-.838zm10.273 0h1.209v3.783h-1.209zm3.859 0h.828l4.252 2.639-.004-2.639h1.041v3.783h-.824s-4.113-2.529-4.254-2.647l.004 2.651-1.043-.004zm9.869.674v2.396h3.781v-.793h-1.979v-.645h3.158v1.256c0 .712-.312.895-1.291.895h-3.59c-.977 0-1.289-.183-1.289-.895v-1.994c0-.713.312-.895 1.289-.895h3.59c.947 0 1.291.176 1.291.857v.088l-1.18-.008v-.264h-3.78zM39.484 84.303c-.007-.006-21.713 0-21.713 0v.007c-4.952.078-8.942 4.108-8.942 9.076 0 4.972 3.99 9.003 8.942 9.081v.007h21.713c0 .001.002-18.17 0-18.171m-11.713 17.903a8.812 8.812 0 1 1 0-17.625 8.812 8.812 0 0 1 0 17.625m23.691 0a8.813 8.813 0 0 1 0-17.624c.273 0 .81-.001.809-.003v-.275c-.001-.002-11.865.005-11.864 0l-.019 18.173c0-.005 11.882.002 11.882 0l.001-.272zm82.813-15.272-3.463 14.071h4.695l.805-3.076c.59.974 1.959 1.532 4.203 1.283 3.492-.39 7.754-3.43 7.754-7.937 0-2.775-2.576-4.846-5.83-4.365-1.553.23-2.912.743-4.164 2.305l.52-2.281zm4.469 11.136c-1.66-.11-1.807-1.35-1.807-2.633 0-1.522.43-3.044 1.111-4.417.678-1.344 2.117-3.045 4.156-3.119 4.046-.145.714 10.448-3.46 10.169m-28.668-8.176c0 .985.934 1.642 2.08 1.642 1.359 0 2.219-.806 2.219-1.909 0-2.062-3.008-2.747-4.943-2.747-4.512 0-9.633 3.522-9.633 7.461 0 2.894 2.863 4.983 6.197 4.983 5.104 0 7.65-3.495 7.879-3.774h-3.576s-1.002 2.939-3.658 2.939c-1.039 0-1.971-.39-1.971-1.402 0-2.538 1.896-7.671 2.756-8.596.611-.657 1.004-.776 2.006-.776.574 0 1.004.388 1.004.717 0 .089-.072.298-.18.597-.108.268-.18.567-.18.865" clip-rule="evenodd" key="b8w2vva"/><path fill="#00678c" fill-rule="evenodd" d="M59.567 89.894c0 .985.93 1.642 2.077 1.642 1.359 0 2.22-.806 2.22-1.909 0-2.062-3.009-2.747-4.943-2.747-4.512 0-9.633 3.522-9.633 7.461 0 2.894 2.865 4.983 6.196 4.983 5.104 0 7.652-3.495 7.879-3.774h-3.576s-.516 2.939-3.658 2.939c-1.04 0-1.97-.39-1.97-1.402 0-2.538 1.896-7.671 2.756-8.596.61-.657 1.004-.776 2.006-.776.574 0 1.003.388 1.003.717 0 .089-.072.298-.179.597a2.4 2.4 0 0 0-.178.865m67.078 5.66c-.002.026-1.357 2.936-4.266 2.936-1.148 0-1.9-.329-1.9-1.402 0-1.015.393-2.061.607-3.074h2.9c4.777 0 6.926-1.938 6.926-3.933 0-2.328-3.234-3.201-5.49-3.201-4.621 0-9.885 3.701-9.885 7.729 0 2.984 2.865 4.716 6.23 4.716 3.572 0 6.465-1.275 8.471-3.771zm-4.125-5.72c.609-1.701 1.504-2.119 2.578-2.119 1.434 0 1.936.567 1.936 1.701 0 2.805-1.746 3.76-3.619 3.76h-2.076zm35.029 5.706c-.391 1.126-1.184 2.799-2.863 2.799-.469 0-.756-.209-.469-1.194l2.256-7.868h2.389c1.154 0 1.381-1.681 1.381-1.681h-3.23l.361-1.513-4.502.016-.445 1.498h-1.158c-1.176 0-1.383 1.681-1.383 1.681h1.971l-1.613 5.869c-.25.896-.5 1.791-.5 2.149 0 1.432 1.756 2.058 3.223 2.058 3.52 0 5.764-1.632 7.047-3.813h-2.465zm-82.073-8.617c-4.62 0-10.421 3.222-10.421 7.431 0 2.598 2.077 5.014 6.338 5.014 1.146 0 1.97-.061 3.116-.299 3.652-.746 7.521-3.761 7.521-7.103.001-2.984-3.153-5.043-6.554-5.043m-.229.835c1.29 0 2.062.389 2.026 1.432-.057 1.643-1.695 6.537-2.503 8.119-.54 1.104-1.44 1.225-2.835 1.225-.896 0-2.217-.062-2.186-.985.031-.897 1.671-6.865 2.213-8.03.58-1.223 1.638-1.761 3.285-1.761m22.341 10.52c-.661.234-1.412.035-1.311-.337l2.077-7.682c.645-2.355-1.791-3.104-3.366-3.104-2.757 0-4.903 1.796-5.969 3.376l.963-3.314-4.267.005s-2.695 9.063-3.155 10.751c-.609 2.239 3.92 1.604 3.92 1.604l1.628-5.839c.155-.538.338-1.102.716-1.66 1.199-1.774 3.365-3.521 4.375-3.291.421.095.825.418.466 1.671l-1.687 5.712c-.716 2.478 1.075 3.382 2.901 3.382.721 0 1.93-.049 2.591-.445z" clip-rule="evenodd" key="sq1eu4r"/><path fill="#00678c" d="M112.682 105.446H8.504v-.711h104.178zm0 1.495H8.504v-.71h104.178zm0 1.496H8.504v-.71h104.178zm50.443-3.702v.711h16.193v-.711zm0 1.496v.71h16.193v-.71zm0 1.496v.71h16.193v-.71z" key="fg9sayp"/><path fill="#00678c" fill-rule="evenodd" d="M182.387 100.878q.47 0 .918.24.448.242.697.69.25.448.25.937 0 .482-.246.927a1.74 1.74 0 0 1-.689.691 1.88 1.88 0 0 1-1.858 0 1.73 1.73 0 0 1-.691-.691 1.87 1.87 0 0 1-.248-.927q0-.488.252-.937.25-.45.699-.69.446-.24.916-.24m0 .309q-.394 0-.766.202a1.45 1.45 0 0 0-.582.575q-.211.375-.211.781 0 .402.207.771.207.37.578.577c.371.207.504.207.773.207s.527-.069.775-.207q.37-.207.574-.577a1.57 1.57 0 0 0-.002-1.552 1.44 1.44 0 0 0-.584-.575 1.6 1.6 0 0 0-.762-.202m-.819 2.588v-2.007h.689q.353 0 .512.055a.52.52 0 0 1 .348.488.54.54 0 0 1-.158.384.62.62 0 0 1-.416.183.6.6 0 0 1 .17.106q.122.12.297.398l.246.393h-.396l-.178-.316q-.211-.372-.34-.467-.088-.069-.26-.069h-.189v.853zm.325-1.129h.393q.282 0 .385-.084c.103-.084.104-.13.104-.223a.28.28 0 0 0-.188-.263q-.087-.035-.326-.035h-.367v.605z" clip-rule="evenodd" key="xkt97ub"/></svg>