<svg xmlns="http://www.w3.org/2000/svg" xml:space="preserve" viewBox="0 0 128 128" key="p5z6s73"><g clip-rule="evenodd" key="5845ivi"><path fill="none" d="M0 0h128v128H0z" key="9w8ohow"/><path fill="#0066DC" fill-rule="evenodd" d="M75.086 60.339c-9.352 0-16.585 7.607-16.585 16.585 0 9.352 7.232 16.46 17.333 16.46 8.479 0 15.587-6.983 15.587-16.211 0-9.602-7.108-16.834-16.335-16.834m35.289 50.502H91.296v-7.482c-5.861 5.736-11.846 7.856-19.827 7.856q-12.157 0-20.949-7.856c-7.731-6.858-11.722-15.837-11.722-26.311 0-9.602 3.741-18.206 10.724-24.94 6.235-6.11 13.842-9.228 22.321-9.228 8.105 0 14.34 2.743 18.829 8.479V22.181l19.702-4.082v92.742zM0 128h128V0H0z" key="gj0pkpg"/></g></svg>