<svg xmlns="http://www.w3.org/2000/svg" xml:space="preserve" viewBox="0 0 194.7 215.2" key="99vtor4"><linearGradient id="a" x1="68.39" x2="185.03" y1="222.15" y2="41.03" gradientUnits="userSpaceOnUse" key="aoqg62u"><stop offset="0" stop-color="#0083b5" key="9cqwaf7"/><stop offset=".42" stop-color="#0ff" key="605v76j"/><stop offset="1" stop-color="#6ff12d" key="mu6rknc"/></linearGradient><path d="M129.8 174.7c7.6-1.6 14-4.8 19.2-9.7 7.7-7.3 8.8-17.1 8.8-29.4V80.7c0-12.3-1.1-22.1-8.8-29.4-5.2-4.9-11.6-8.1-19.2-9.7V15.4c12.5 1.8 22.9 6.5 31 14.2 10.6 10 19.9 23.5 19.9 40.5v75c0 17-9.3 30.5-19.9 40.5-8.1 7.7-18.5 12.4-31 14.2z" fill="url(#a)" key="vz1cdys"/><linearGradient id="b" x1="5.04" x2="121.67" y1="181.36" y2=".23" gradientUnits="userSpaceOnUse" key="iifrzub"><stop offset="0" stop-color="#0083b5" key="x2wdrih"/><stop offset=".42" stop-color="#0ff" key="4r3td8n"/><stop offset="1" stop-color="#6ff12d" key="m15484q"/></linearGradient><path fill="url(#b)" d="M33.9 29.6c8.1-7.7 18.5-12.4 31-14.2v26.3c-7.6 1.6-14 4.8-19.2 9.7-7.7 7.3-8.8 17-8.8 29.2v55.1c0 12.3 1.1 22.1 8.8 29.4 5.2 4.9 11.6 8.1 19.2 9.7v25.1c-12.5-1.8-22.9-6.5-31-14.2-10.6-10-19.9-23.5-19.9-40.5V69.8c-.1-16.8 9.2-30.2 19.9-40.2" key="trs6jie"/><linearGradient id="c" x1="22.03" x2="138.66" y1="192.3" y2="11.17" gradientUnits="userSpaceOnUse" key="gddey65"><stop offset="0" stop-color="#0083b5" key="op563cm"/><stop offset=".42" stop-color="#0ff" key="cpbu6wm"/><stop offset="1" stop-color="#6ff12d" key="iydvyao"/></linearGradient><path fill="url(#c)" d="m120.2 87.8 8.5-13.7-17.8-9.4-7.5 14.2a6.02 6.02 0 0 1-5.5 3.3c-2.3 0-4.4-1.2-5.5-3.3L85 64.7 67.3 74l12.3 19.7z" key="ljw4eca"/><linearGradient id="d" x1="37.97" x2="154.6" y1="202.56" y2="21.43" gradientUnits="userSpaceOnUse" key="tczel1q"><stop offset="0" stop-color="#0083b5" key="aszweul"/><stop offset=".42" stop-color="#0ff" key="uh8gpoi"/><stop offset="1" stop-color="#6ff12d" key="punb6jn"/></linearGradient><path fill="url(#d)" d="m142.4 97.7-87.8.8v17.7l27.5-.1-14.8 23.8 17.7 9.3 7.5-14.2c1.1-2.1 3.1-3.3 5.5-3.3 2.3 0 4.4 1.2 5.5 3.3l7.5 14.2 17.8-9.4-12-19.3-23.1-4.5 48.7-.2z" key="liymz5w"/></svg>