<svg xmlns="http://www.w3.org/2000/svg" fill="none" viewBox="0 0 160 160" key="1whip8t"><path fill="#C5F74F" d="M37.058 78.73a6.69 6.69 0 0 0-2.548-9.188c-3.268-1.826-7.427-.672-9.288 2.576L3.37 110.248a6.69 6.69 0 0 0 2.547 9.187c3.269 1.826 7.427.673 9.289-2.575zM84.157 49.493a6.69 6.69 0 0 0-2.548-9.187c-3.268-1.826-7.427-.673-9.288 2.576L50.47 81.012a6.69 6.69 0 0 0 2.547 9.187c3.269 1.826 7.427.672 9.289-2.576zM156.63 49.495a6.69 6.69 0 0 0-2.548-9.188c-3.268-1.826-7.427-.672-9.289 2.576l-21.851 38.13a6.69 6.69 0 0 0 2.548 9.187c3.268 1.826 7.427.673 9.288-2.575zM109.52 78.73a6.69 6.69 0 0 0-2.548-9.188c-3.269-1.826-7.427-.672-9.289 2.576l-21.85 38.13a6.69 6.69 0 0 0 2.547 9.187c3.268 1.826 7.427.673 9.288-2.575z" key="edt6sbu"/></svg>