<svg xmlns="http://www.w3.org/2000/svg" viewBox="0 0 1298 468" key="bmtvgpm"><path fill="#633e9e" d="M237.045 271.851c-21.831-13.142-28.94-41.756-15.798-63.587L332.18 23.987c13.141-21.831 41.756-28.94 63.586-15.798 21.831 13.142 28.94 41.756 15.798 63.587L300.631 256.053c-13.141 21.83-41.756 28.94-63.586 15.798" key="hzf6yx8"/><path fill="#43257c" d="M387.104 461.759c-22.297 12.335-50.632 4.185-62.967-18.112L220.015 255.438c-12.336-22.297-4.185-50.632 18.111-62.967 22.297-12.335 50.632-4.185 62.967 18.112l104.123 188.21c12.335 22.296 4.184 50.631-18.112 62.966" key="r76n33t"/><path fill="#8361c5" d="M.521 233.059c0 25.481 20.848 46.33 46.33 46.33h215.09c25.482 0 46.33-20.849 46.33-46.33 0-25.482-20.848-46.33-46.33-46.33H46.852c-25.482 0-46.33 20.848-46.33 46.33" key="oieq1zr"/><path d="M538.688 169.882q15.678 9.055 24.474 25.457t8.796 37.513v6.623q0 21.213-8.796 37.564-8.797 16.35-24.526 25.405t-36.012 9.055H455.85V160.827h46.981q20.18 0 35.857 9.055m.259 62.763q0-22.353-9.21-33.943t-26.906-11.59h-14.488v98.206h14.281q17.695 0 27.01-11.745 9.313-11.746 9.313-34.098zM693.034 199.53V311.5h-29.286l-.828-11.694q-5.282 6.623-12.939 10.194-7.658 3.57-17.488 3.57-17.49 0-27.371-10.142-9.883-10.14-9.883-31.458V199.53h31.148v72.645q0 8.28 4.088 12.211 4.087 3.933 11.331 3.933 14.384 0 19.975-10.038v-78.75zM817.622 265.656h-70.783q1.76 10.452 8.692 16.61 6.934 6.156 17.8 6.156 8.07 0 14.953-3.052 6.882-3.054 11.745-9.159l15.005 17.282q-5.898 8.485-17.23 14.28-11.331 5.796-26.543 5.796-17.178 0-29.855-7.244t-19.455-19.662-6.778-27.423v-3.932q0-16.765 6.312-29.907 6.313-13.143 18.214-20.541 11.9-7.4 28.147-7.4 15.832 0 27.009 6.727 11.176 6.726 16.972 19.093 5.795 12.366 5.795 29.13zm-30.632-23.387q-.205-9.107-5.019-14.384-4.811-5.278-14.332-5.278-8.9 0-13.918 5.898-5.02 5.9-6.572 16.247h39.841zM926.066 207.55q9.21 10.09 9.21 32.96v70.989h-31.252v-71.093q0-9.935-4.243-13.815-4.242-3.88-13.142-3.88-6.105 0-10.607 2.587-4.501 2.586-7.296 7.347v78.854h-31.252V199.53h29.287l1.034 12.936q5.899-7.348 14.074-11.177t18.11-3.829q16.867 0 26.077 10.09M1058.416 152.549v158.95h-28.148l-1.552-12.004q-10.969 14.074-28.355 14.074-13.556 0-23.439-7.296-9.882-7.296-15.005-20.127-5.122-12.832-5.122-29.286v-2.173q0-17.075 5.122-30.01 5.124-12.936 15.005-20.076 9.884-7.14 23.646-7.14 15.937 0 26.596 12.107v-57.02zm-31.252 124.594v-43.256q-5.382-11.177-18.627-11.177-10.66 0-15.575 8.693t-4.915 23.284v2.173q0 14.385 4.812 22.921 4.812 8.538 15.47 8.538 13.143 0 18.835-11.176M1183.63 265.656h-70.782q1.76 10.452 8.692 16.61 6.934 6.156 17.8 6.156 8.07 0 14.952-3.052 6.882-3.054 11.746-9.159l15.005 17.282q-5.899 8.485-17.23 14.28-11.331 5.796-26.543 5.796-17.178 0-29.855-7.244t-19.455-19.662-6.778-27.423v-3.932q0-16.765 6.312-29.907 6.313-13.143 18.214-20.541 11.9-7.4 28.146-7.4 15.834 0 27.01 6.727 11.176 6.726 16.971 19.093 5.795 12.366 5.795 29.13zM1153 242.269q-.207-9.107-5.019-14.384t-14.332-5.278q-8.9 0-13.919 5.898-5.019 5.9-6.57 16.247h39.84z" key="i83wu7l"/><path fill="#764fc1" d="M1296.985 278.991c0 18.91-15.33 34.239-34.239 34.239-18.91 0-34.239-15.33-34.239-34.239 0-18.91 15.33-34.239 34.24-34.239 18.909 0 34.238 15.33 34.238 34.24M313.984 233.059c0-25.482-20.96-46.33-46.58-46.33H234.24l-13.034 21.535c-1.33 2.197-2.397 4.476-3.32 6.787-.209.493-.422.983-.613 1.484-.06.168-.114.337-.172.505-4.501 12.205-3.92 26.199 2.866 38.398l13.322 23.95h34.117c25.618 0 46.58-20.848 46.58-46.33" key="udwvsq1"/></svg>