<svg xmlns="http://www.w3.org/2000/svg" viewBox="0 0 1299 469" key="3azidxa"><path fill="#633e9e" d="M237.285 272.439c-21.831-13.142-28.94-41.756-15.799-63.587L332.42 24.575c13.142-21.831 41.756-28.94 63.587-15.798 21.83 13.142 28.94 41.756 15.798 63.587L300.871 256.64c-13.142 21.83-41.756 28.94-63.586 15.798" key="kn1plu5"/><path fill="#43257c" d="M387.344 462.347c-22.297 12.335-50.632 4.185-62.967-18.112l-104.123-188.21c-12.335-22.296-4.184-50.631 18.112-62.966 22.297-12.335 50.632-4.185 62.967 18.112l104.123 188.21c12.335 22.296 4.184 50.631-18.112 62.966" key="hgb4t8r"/><path fill="#8361c5" d="M.76 233.647c0 25.48 20.849 46.33 46.33 46.33h215.092c25.48 0 46.329-20.85 46.329-46.33 0-25.482-20.848-46.33-46.33-46.33H47.092c-25.482 0-46.33 20.848-46.33 46.33" key="dsl5zis"/><g fill="#fff" key="jolial8"><path d="M538.928 170.47q15.678 9.055 24.474 25.457t8.796 37.513v6.623q0 21.214-8.796 37.564-8.797 16.35-24.526 25.405t-36.012 9.055h-46.775000000000006V161.415h46.982q20.18 0 35.857 9.055m.259 62.763q0-22.353-9.21-33.943T503.07 187.7h-14.488v98.206h14.28q17.697 0 27.01-11.746 9.314-11.745 9.314-34.097zM693.273 200.118v111.969h-29.286l-.828-11.694q-5.28 6.623-12.938 10.193t-17.489 3.57q-17.488 0-27.37-10.14-9.884-10.142-9.883-31.46v-72.438h31.148v72.645q0 8.28 4.088 12.211 4.088 3.933 11.33 3.933 14.385 0 19.976-10.038v-78.75zM817.861 266.244H747.08q1.758 10.452 8.692 16.609t17.8 6.157q8.07 0 14.953-3.052 6.881-3.053 11.745-9.159l15.005 17.282q-5.899 8.485-17.23 14.28-11.331 5.796-26.543 5.796-17.178 0-29.855-7.244T722.19 287.25t-6.778-27.423v-3.932q0-16.766 6.312-29.907 6.313-13.143 18.213-20.541 11.901-7.4 28.148-7.4 15.832 0 27.009 6.727 11.176 6.726 16.971 19.092 5.795 12.367 5.795 29.131zm-30.63-23.387q-.208-9.107-5.02-14.385-4.812-5.277-14.332-5.277-8.9 0-13.919 5.899-5.019 5.898-6.57 16.246h39.84zM926.306 208.138q9.21 10.09 9.21 32.96v70.989h-31.252v-71.093q0-9.935-4.243-13.815t-13.142-3.88q-6.105 0-10.607 2.586-4.501 2.587-7.296 7.348v78.854h-31.252V200.118h29.286l1.035 12.935q5.898-7.347 14.073-11.176t18.11-3.829q16.868 0 26.078 10.09M1058.655 153.137v158.95h-28.147l-1.552-12.004q-10.97 14.074-28.355 14.074-13.556 0-23.439-7.296-9.882-7.296-15.005-20.127-5.122-12.833-5.122-29.286v-2.173q0-17.075 5.122-30.01 5.123-12.936 15.005-20.076t23.646-7.14q15.937 0 26.595 12.107v-57.02zm-31.252 124.593v-43.255q-5.38-11.177-18.627-11.177-10.659 0-15.574 8.693t-4.915 23.284v2.173q0 14.385 4.812 22.921 4.81 8.538 15.47 8.538 13.143 0 18.834-11.177M1183.87 266.244h-70.783q1.76 10.452 8.693 16.609t17.8 6.157q8.07 0 14.952-3.052t11.746-9.159l15.005 17.282q-5.898 8.485-17.23 14.28-11.331 5.796-26.543 5.796-17.179 0-29.855-7.244-12.678-7.244-19.455-19.662-6.779-12.418-6.778-27.423v-3.932q0-16.766 6.312-29.907 6.313-13.143 18.213-20.541 11.9-7.4 28.148-7.4 15.833 0 27.009 6.727 11.175 6.726 16.971 19.092 5.795 12.367 5.795 29.131zm-30.631-23.387q-.207-9.107-5.019-14.385-4.812-5.277-14.332-5.277-8.9 0-13.919 5.899-5.019 5.898-6.571 16.246h39.841z" key="2nkwibr"/></g><path fill="#764fc1" d="M1297.225 279.58c0 18.909-15.33 34.238-34.24 34.238-18.909 0-34.238-15.33-34.238-34.239 0-18.91 15.33-34.239 34.239-34.239 18.91 0 34.239 15.33 34.239 34.24M314.224 233.647c0-25.482-20.96-46.33-46.58-46.33H234.48l-13.034 21.535c-1.33 2.197-2.398 4.475-3.32 6.787-.209.494-.422.983-.613 1.484-.06.168-.114.336-.172.505-4.502 12.205-3.92 26.199 2.866 38.398l13.322 23.95h34.117c25.618 0 46.58-20.848 46.58-46.33" key="33mevga"/></svg>