<svg xmlns="http://www.w3.org/2000/svg" version="1.0" viewBox="169 134.28 398.78 467.6" key="f89d2k3"><path d="M191 135.4c-11.1 2.5-17 7.6-20 17.4-2 6.3-2 10-2 180.1 0 113.2.4 174.9 1 177.2 2.9 10.4 9 14.6 40.7 28.2 28.8 12.3 65.6 27.8 103.3 43.7 6.9 2.9 18.8 7.9 26.4 11.2 27.2 11.5 27.7 11.5 54.6.4 23.3-9.7 29.8-12.4 43.5-18 47.7-19.6 86.3-36.1 101.4-43.3 13.1-6.3 19.8-12.1 23.8-20.9 2-4.5 2.7-8.1 3.5-18.2.5-7.2.7-80.3.5-173.1-.3-144.8-.5-161.1-1.9-165.9-2.9-9.4-7.6-14.5-17-18.1-3.9-1.5-19.5-1.6-178.3-1.8-134.4-.1-175.3.1-179.5 1.1m104.1 62c.2.2.3 6.5.1 14l-.3 13.6H259v45l18.1.2 18 .3v27l-18.1.3-18 .2.2 26.8.3 26.7 17.8.5 17.8.5.2 13.3.2 13.2H232V197h31.3c17.3 0 31.6.2 31.8.4m64 2c6.5 2.4 11.4 6.8 14.6 13.4l2.8 5.7v74l-2.8 5.7c-5.4 11-13.4 14.8-30.9 14.8H332v66h-28v-90.3c0-49.7.3-90.7.8-91.1.4-.5 11.7-.6 25.2-.3 19.5.3 25.4.8 29.1 2.1m54.4 88.6v90.5l-13.7.3-13.8.3v-90.4c0-49.7.3-90.7.7-91.1.4-.3 6.6-.5 13.7-.4l13.1.3zm74-87.2c6.5 3 10.8 7.3 13.7 13.6 2.2 4.8 2.3 6.4 2.6 30.3l.3 25.3h-27l-.3-21.5c-.3-20.8-.4-21.5-2.6-23.7-2-2-3.3-2.3-10.2-2.3-7.4 0-8.2.2-10.7 2.8l-2.8 2.7-.3 59.8c-.2 42 .1 60.5.9 62.4 1.4 3.4 5.7 5.1 13 5.1 7.1 0 10.4-1.6 11.9-5.6.5-1.7 1-11.7 1-23.3V306h27v23.5c0 12.9-.5 25.6-1.1 28.4-2.1 9.7-8.6 16.4-18.9 19.5-7.4 2.2-34.5 2.2-41.8.1-10.7-3.2-17.4-11.4-19.3-23.7-.6-3.9-.9-30.4-.7-68.4l.3-61.9 2.4-5.9c3.7-9.2 10.6-15.7 20.1-18.7 1.4-.4 10.4-.7 20-.6 15.9.2 18 .4 22.5 2.5M265.8 427.5c2.9 1.3 5.5 3.1 5.8 3.9.3.9-1 3.3-3.2 6l-3.7 4.5-4.8-2.5c-5.7-2.8-9.8-3-14.6-.8-4 2-6.2 4.9-7.3 9.9-2.5 11.2 7.8 20.8 18.6 17.3 3.3-1.1 3.9-1.8 4.2-4.6l.3-3.2h-11.2l.3-5.3.3-5.2h24l.3 10c.2 5.5 0 11-.3 12.2-.3 1.5-2.7 3.3-7.2 5.5-6.2 3-7.6 3.3-15.8 3.3-7.8 0-9.7-.4-14-2.7-9.8-5.1-14.5-12.9-14.5-23.8 0-13.3 8.9-24.3 22-27.1 5.5-1.2 15 0 20.8 2.6m231.6.6c2.5 1.2 4.6 2.8 4.6 3.4 0 1.2-5.6 9.5-6.4 9.5-.2 0-2.4-.9-5-2.1-6.2-2.7-12.4-2.9-14.2-.4-2.1 2.9-.3 4.1 10.8 7.6 6.4 1.9 11 4 13.1 5.9 3 2.7 3.2 3.2 3.2 9.7 0 5.2-.5 7.4-2 9.5-5.1 6.8-16.6 9.4-28.5 6.4-6.1-1.6-14-5.7-14-7.4 0-.4 1.7-2.6 3.8-5l3.7-4.4 5 2.8c7.8 4.4 18.4 3.9 18.5-.8 0-1.5-5.3-4.1-11.2-5.5-13.3-3.1-18.2-7.9-17.5-17.1.4-5.9 2.7-9.7 7.5-12.5 6.7-4 20.3-3.8 28.6.4m-170.3 22.4c5.9 13.7 10.8 25.6 10.8 26.2.1.9-2 1.3-7.3 1.3h-7.4l-1.8-5-1.8-5h-20.8l-2.1 5-2.1 5h-7.4c-6.5 0-7.3-.2-6.8-1.7.4-.9 5.5-12.8 11.4-26.5l10.7-24.9 6.9.3 6.9.3zm33.1-23.8c.8 1 3.6 5.3 6.2 9.6 2.7 4.2 5.2 7.9 5.6 8.2.5.3 3.3-3.4 6.4-8.2 3-4.9 6-9.4 6.6-10.1.7-.7 3.7-1.2 8-1.2 4.9 0 7 .4 7.1 1.2 0 1.2 0 49.2-.1 51 0 .5-3.1.8-7 .8h-7v-30.5l-6.5 9.9c-3.6 5.5-6.7 10.2-7 10.4-.2.3-3.2-3.9-6.6-9.2s-6.5-9.6-6.8-9.6-.6 6.4-.6 14.2v14.3l-7.2.3-7.3.3v-25.9c0-14.2.3-26.2.7-26.5.3-.4 3.6-.7 7.3-.7 5.1 0 7 .4 8.2 1.7m93.1 4.8-.1 6-12.8.2c-7.1.1-13.5.2-14.2.2-.9.1-1.2 1.3-1 3.8l.3 3.8 12.5.5 12.5.5.3 5.2.3 5.3H425v9h29v12h-43v-25.8c0-14.2.3-26.2.7-26.6.4-.3 9.9-.5 21.1-.4l20.5.3zM439 542.7c0 .5-16 6.7-35.5 14L368 569.8l-16.8-6.2c-9.2-3.5-25.1-9.4-35.4-13.2s-18.8-7.2-18.8-7.7c0-.4 32-.7 71-.7 39.1 0 71 .3 71 .7" key="hx9isxy"/><path d="M332 255v33h6.8c11 0 10.6 1 11-30.4.2-17.3 0-27.4-.8-29.9-1.3-4.5-3.8-5.7-11.6-5.7H332zM306.5 448.4c-3.6 8.1-3.4 8.6 2.3 8.6 2.7 0 5.1-.2 5.4-.5.5-.5-3.8-12.3-4.8-13.4-.2-.2-1.5 2.1-2.9 5.3" key="wiq8ofl"/></svg>