<svg xmlns="http://www.w3.org/2000/svg" version="1.0" viewBox="8.09 8.4 175.11 175.12" key="n7fxm7w"><path fill="#F05537" d="M82.8 9C53.3 13.7 28 32.8 15.9 59.5 6.2 81 5.5 105.9 14 127.8c10.4 26.7 33.9 47.1 62.1 53.9 10.8 2.6 29.9 2.4 40.5-.5 21-5.6 39.5-18.4 51.1-35.3 3.3-4.8 7.6-12.9 7.1-13.4-.2-.1-9-2.3-19.7-4.8l-19.4-4.5-6.1 6.2c-3.3 3.4-8.4 7.3-11.2 8.8-14.2 7.6-31.6 7.6-45.8 0-5.9-3.1-17.3-13.9-16-15.1.5-.4 29.2-7.3 63.8-15.2l62.8-14.4-.6-6.5c-3.1-35.6-30-66.9-65.5-76.1-8.7-2.3-25.9-3.2-34.3-1.9m24.7 40.5c3.2.9 8.1 2.8 10.9 4.3 4.9 2.6 17.3 13.8 16.4 14.8-.3.2-19.1 4.7-41.9 10-22.8 5.2-42.2 9.7-43.1 10-1.5.4-1.7 0-1.2-2.8.3-1.8 2.1-6.6 4-10.6 9.4-20.4 32.9-31.4 54.9-25.7" key="7rmatt6"/></svg>