<svg xmlns="http://www.w3.org/2000/svg" xml:space="preserve" viewBox="1 1 792 792" key="51lb7zb"><path fill="#FFF" d="M510 793H1V1h792v792zm127.769-327.01c.042-.391.084-.783.297-1.84 2.072-3.184 4.435-6.218 6.17-9.577 10.083-19.533 19.973-39.166 30.02-58.718 10.415-20.269 19.182-41.482 33.216-59.708 6.674-8.667 13.886-16.92 21.015-25.555-.708-.424-1.48-.981-2.326-1.381-32.848-15.52-67.548-21.606-103.675-20.023-7.307.32-14.655 1.114-21.84 2.458-10.29 1.926-20.447 4.559-30.808 6.084-13.22-50.998-36.198-97.143-68.705-138.594-7.503-9.567-16.912-14.432-29.218-14.418-89.475.107-178.951.058-268.427.047-3.208 0-6.568-.337-7.772 3.7-1.128 3.785 1.864 5.2 4.153 7.098 23.698 19.655 48.24 38.395 70.858 59.225 50.607 46.604 93.901 99.496 130.297 157.926 7.734 12.416 14.72 25.297 21.561 38.49-24.358 22.834-51.29 42.096-81.33 57.978-1.082-.414-2.199-.755-3.241-1.253-69.093-32.997-132.14-75.068-188.747-126.62-15.613-14.217-30.276-29.477-45.358-44.275-4.5-4.415-7.244-4.16-9.99 1.924.008 86.5.015 173 .03 259.5 0 .829.11 1.659.03 3.305 1.122 11.554 6.699 20.278 16.434 26.583 79.498 51.492 166.41 71.284 259.874 57.183 110.188-16.623 196.117-72.891 258.596-165.053 2.682-3.955 4.832-8.27 7.196-12.44 0 0-.029.027.59-.143.192-.589.384-1.178.476-1.791 0 0 .034.097.624-.111" key="1qjam8k"/><path fill="#4C6FFB" d="M636.113 468.058c-2.398 4.148-4.548 8.463-7.23 12.418-62.48 92.162-148.408 148.43-258.596 165.053-93.464 14.1-180.376-5.691-259.874-57.183-9.735-6.305-15.312-15.03-16.088-27.295.456-2.028.664-3.343.664-4.659.012-84.544.013-169.087-.032-253.631-.001-1.574-.565-3.148-.867-4.721 2.575-5.165 5.32-5.421 9.819-1.006 15.082 14.798 29.745 30.058 45.358 44.276 56.608 51.55 119.654 93.622 188.747 126.62 1.042.497 2.16.838 3.863 1.536 42.437 20.234 85.776 36.063 130.364 48.602 21.526 6.053 43.3 8.795 65.525 5.818 37.508-5.023 68.75-21.694 93.058-50.96 1.517-1.827 3.515-3.255 5.289-4.868" key="iebsh7y"/><path fill="#78D5B9" d="M423.076 410.678c-7.331-12.667-14.318-25.548-22.052-37.964-36.396-58.43-79.69-111.322-130.297-157.926-22.618-20.83-47.16-39.57-70.858-59.225-2.29-1.899-5.281-3.313-4.153-7.097 1.204-4.038 4.564-3.701 7.772-3.7 89.476.01 178.952.059 268.427-.048 12.306-.014 21.715 4.851 29.218 14.418 32.507 41.45 55.486 87.596 68.496 139.176-35.963 12.202-66.34 32.18-92.533 59.033-17.665 18.11-35.99 35.578-54.02 53.333" key="d4kdxg3"/><path fill="#293E96" d="M422.83 410.941c18.276-18.018 36.601-35.485 54.266-53.596 26.194-26.853 56.57-46.83 92.607-58.63 10.496-2.51 20.653-5.143 30.943-7.069 7.185-1.344 14.533-2.138 21.84-2.458 36.127-1.583 70.827 4.502 103.675 20.023.846.4 1.618.957 2.326 1.38-7.13 8.636-14.34 16.89-21.015 25.556-14.034 18.226-22.801 39.439-33.217 59.708-10.046 19.552-19.936 39.185-30.02 58.718-1.734 3.359-4.097 6.393-6.482 10.078-.4.85-.487 1.199-.574 1.548 0 0-.034-.097-.305-.002-.456.686-.64 1.276-.824 1.866 0 0 .029-.027.046-.016-1.757 1.624-3.755 3.052-5.272 4.878-24.308 29.267-55.55 45.938-93.058 50.961-22.224 2.977-43.999.235-65.525-5.818-44.588-12.539-87.927-28.368-129.988-48.544 29.041-16.224 55.974-35.486 80.578-58.583" key="c7q72ic"/><path fill="#2A5FFB" d="M94.005 298.499c.387 1.114.95 2.688.952 4.262.045 84.544.044 169.087.032 253.631 0 1.316-.208 2.631-.595 4.25-.336-.525-.445-1.355-.446-2.185-.014-86.5-.021-173 .057-259.958" key="jsj6fnr"/><path fill="#4C6FFB" d="M636.36 467.978c-.126-.505.058-1.095.564-1.769.13.506-.063 1.095-.564 1.77M637.474 466.095c-.208-.245-.12-.594.194-1.111.185.223.143.615-.194 1.11" key="5orub8l"/></svg>