<svg xmlns="http://www.w3.org/2000/svg" viewBox="0 0 192 192" key="k0eoyly"><defs key="n369cfq"><linearGradient id="b" x1="56.9" x2="48.9" y1="102.54" y2="98.36" gradientUnits="userSpaceOnUse" key="n0f0tu0"><stop offset="0" stop-color="#a52714" key="6ief9gh"/><stop offset=".4" stop-color="#a52714" stop-opacity=".5" key="fny8bip"/><stop offset=".8" stop-color="#a52714" stop-opacity="0" key="izew4d7"/></linearGradient><linearGradient id="c" x1="90.89" x2="87.31" y1="90.91" y2="87.33" gradientUnits="userSpaceOnUse" key="mt43ayb"><stop offset="0" stop-color="#a52714" stop-opacity=".8" key="sacjxnw"/><stop offset=".5" stop-color="#a52714" stop-opacity=".21" key="x52rusb"/><stop offset="1" stop-color="#a52714" stop-opacity="0" key="zsvc5f3"/></linearGradient><linearGradient id="d" x1="27.19" x2="160.88" y1="40.28" y2="173.97" gradientUnits="userSpaceOnUse" key="f5v1sv8"><stop offset="0" stop-color="#fff" stop-opacity=".1" key="chzebax"/><stop offset="1" stop-color="#fff" stop-opacity="0" key="bfxk7k5"/></linearGradient><clipPath id="a" key="keylfkk"><path fill="none" d="M143.41 47.34a4 4 0 0 0-6.77-2.16L115.88 66 99.54 34.89a4 4 0 0 0-7.08 0l-8.93 17-22.4-41.77a4 4 0 0 0-7.48 1.28L32 150l57.9 32.46a12 12 0 0 0 11.7 0L160 150z" key="jxkukea"/></clipPath></defs><g fill="none" key="kwepl29"><path d="M0 0h192v192H0z" key="xiltfqm"/><g clip-path="url(#a)" key="2j8xntw"><path fill="#ffa000" d="M32 150 53.66 11.39a4 4 0 0 1 7.48-1.27l22.4 41.78 8.93-17a4 4 0 0 1 7.08 0L160 150z" key="57cgf2p"/><path fill="url(#b)" d="M106 9 0 0v192l32-42z" opacity=".12" key="umes7m3"/><path fill="#f57c00" d="m106.83 96.01-23.3-44.12L32 150z" key="7pedfui"/><path fill="url(#c)" d="M0 0h192v192H0z" opacity=".2" key="ng0xslm"/><path fill="#ffca28" d="M160 150 143.41 47.34a4 4 0 0 0-6.77-2.16L32 150l57.9 32.47a12 12 0 0 0 11.7 0z" key="k6qkio5"/><path fill="#fff" fill-opacity=".2" d="M143.41 47.34a4 4 0 0 0-6.77-2.16L115.88 66 99.54 34.89a4 4 0 0 0-7.08 0l-8.93 17-22.4-41.77a4 4 0 0 0-7.48 1.28L32 150h-.08l.07.08.57.28L115.83 67l20.78-20.8a4 4 0 0 1 6.78 2.16l16.45 101.74.16-.1zM32.19 149.81 53.66 12.39a4 4 0 0 1 7.48-1.28l22.4 41.78 8.93-17a4 4 0 0 1 7.08 0l16 30.43z" key="92q09fm"/><path fill="#a52714" d="M101.6 181.49a12 12 0 0 1-11.7 0l-57.76-32.4-.14.91 57.9 32.46a12 12 0 0 0 11.7 0L160 150l-.15-.92z" opacity=".2" key="zdk41d6"/><path fill="url(#d)" d="M143.41 47.34a4 4 0 0 0-6.77-2.16L115.88 66 99.54 34.89a4 4 0 0 0-7.08 0l-8.93 17-22.4-41.77a4 4 0 0 0-7.48 1.28L32 150l57.9 32.46a12 12 0 0 0 11.7 0L160 150z" key="sonfxz4"/></g><circle cx="144" cy="144" r="40" fill="#757575" key="we3u3jk"/><path fill="#fff" fill-rule="evenodd" d="m144 146-18 8v-8l18-8 18 8v7-1.5 2.5zm0-22 18 8v8l-18-8-18 8v-8zm6.75 29 9 4-15.75 7v-8z" key="6q1x0ne"/></g></svg>