<svg xmlns="http://www.w3.org/2000/svg" xmlns:xlink="http://www.w3.org/1999/xlink" viewBox="0 0 400 400" key="ad84ay0"><defs key="don0z6s"><path id="a" d="M151.5 0c-.281-.014-.829.074-.829.074C-5.137 11.682-2.968 159.97 1.223 220.294 1.561 225.158 24.585 399.92 41.4 400c23.209.108 11.607-31.39 11.607-31.39s35.829 10.343 97.664 10.746v.016l.83-.008.833.008v-.016c61.828-.403 97.66-10.747 97.66-10.747s-11.601 31.5 11.607 31.391c16.812-.08 39.835-174.843 40.177-179.705 4.187-60.326 6.36-208.613-149.444-220.22 0 0-.455-.075-.749-.075z" key="af5eufd"/><path id="d" d="M151.5 0c-.281-.014-.829.074-.829.074C-5.137 11.682-2.968 159.97 1.223 220.294 1.561 225.158 24.585 399.92 41.4 400c23.209.108 11.607-31.39 11.607-31.39s35.829 10.343 97.664 10.746v.016l.83-.008.833.008v-.016c61.828-.403 97.66-10.747 97.66-10.747s-11.601 31.5 11.607 31.391c16.812-.08 39.835-174.843 40.177-179.705 4.187-60.326 6.36-208.613-149.444-220.22 0 0-.455-.075-.749-.075z" key="ufxgjhc"/><path id="f" d="M151.5 0c-.281-.014-.829.074-.829.074C-5.137 11.682-2.968 159.97 1.223 220.294 1.561 225.158 24.585 399.92 41.4 400c23.209.108 11.607-31.39 11.607-31.39s35.829 10.343 97.664 10.746v.016l.83-.008.833.008v-.016c61.828-.403 97.66-10.747 97.66-10.747s-11.601 31.5 11.607 31.391c16.812-.08 39.835-174.843 40.177-179.705 4.187-60.326 6.36-208.613-149.444-220.22 0 0-.455-.075-.749-.075z" key="1somoab"/><path id="h" d="M151.5 0c-.281-.014-.829.074-.829.074C-5.137 11.682-2.968 159.97 1.223 220.294 1.561 225.158 24.585 399.92 41.4 400c23.209.108 11.607-31.39 11.607-31.39s35.829 10.343 97.664 10.746v.016l.83-.008.833.008v-.016c61.828-.403 97.66-10.747 97.66-10.747s-11.601 31.5 11.607 31.391c16.812-.08 39.835-174.843 40.177-179.705 4.187-60.326 6.36-208.613-149.444-220.22 0 0-.455-.075-.749-.075z" key="umz89k7"/><path id="j" d="M151.5 0c-.281-.014-.829.074-.829.074C-5.137 11.682-2.968 159.97 1.223 220.294 1.561 225.158 24.585 399.92 41.4 400c23.209.108 11.607-31.39 11.607-31.39s35.829 10.343 97.664 10.746v.016l.83-.008.833.008v-.016c61.828-.403 97.66-10.747 97.66-10.747s-11.601 31.5 11.607 31.391c16.812-.08 39.835-174.843 40.177-179.705 4.187-60.326 6.36-208.613-149.444-220.22 0 0-.455-.075-.749-.075z" key="hawbudh"/><path id="l" d="M151.5 0c-.281-.014-.829.074-.829.074C-5.137 11.682-2.968 159.97 1.223 220.294 1.561 225.158 24.585 399.92 41.4 400c23.209.108 11.607-31.39 11.607-31.39s35.829 10.343 97.664 10.746v.016l.83-.008.833.008v-.016c61.828-.403 97.66-10.747 97.66-10.747s-11.601 31.5 11.607 31.391c16.812-.08 39.835-174.843 40.177-179.705 4.187-60.326 6.36-208.613-149.444-220.22 0 0-.455-.075-.749-.075z" key="may0xnl"/><path id="n" d="M151.5 0c-.281-.014-.829.074-.829.074C-5.137 11.682-2.968 159.97 1.223 220.294 1.561 225.158 24.585 399.92 41.4 400c23.209.108 11.607-31.39 11.607-31.39s35.829 10.343 97.664 10.746v.016l.83-.008.833.008v-.016c61.828-.403 97.66-10.747 97.66-10.747s-11.601 31.5 11.607 31.391c16.812-.08 39.835-174.843 40.177-179.705 4.187-60.326 6.36-208.613-149.444-220.22 0 0-.455-.075-.749-.075z" key="7ymi52f"/><path id="p" d="M151.5 0c-.281-.014-.829.074-.829.074C-5.137 11.682-2.968 159.97 1.223 220.294 1.561 225.158 24.585 399.92 41.4 400c23.209.108 11.607-31.39 11.607-31.39s35.829 10.343 97.664 10.746v.016l.83-.008.833.008v-.016c61.828-.403 97.66-10.747 97.66-10.747s-11.601 31.5 11.607 31.391c16.812-.08 39.835-174.843 40.177-179.705 4.187-60.326 6.36-208.613-149.444-220.22 0 0-.455-.075-.749-.075z" key="duo7odx"/><path id="r" d="M151.5 0c-.281-.014-.829.074-.829.074C-5.137 11.682-2.968 159.97 1.223 220.294 1.561 225.158 24.585 399.92 41.4 400c23.209.108 11.607-31.39 11.607-31.39s35.829 10.343 97.664 10.746v.016l.83-.008.833.008v-.016c61.828-.403 97.66-10.747 97.66-10.747s-11.601 31.5 11.607 31.391c16.812-.08 39.835-174.843 40.177-179.705 4.187-60.326 6.36-208.613-149.444-220.22 0 0-.455-.075-.749-.075z" key="y48sovx"/><path id="t" d="M151.5 0c-.281-.014-.829.074-.829.074C-5.137 11.682-2.968 159.97 1.223 220.294 1.561 225.158 24.585 399.92 41.4 400c23.209.108 11.607-31.39 11.607-31.39s35.829 10.343 97.664 10.746v.016l.83-.008.833.008v-.016c61.828-.403 97.66-10.747 97.66-10.747s-11.601 31.5 11.607 31.391c16.812-.08 39.835-174.843 40.177-179.705 4.187-60.326 6.36-208.613-149.444-220.22 0 0-.455-.075-.749-.075z" key="xiac5v4"/><path id="v" d="M151.5 0c-.281-.014-.829.074-.829.074C-5.137 11.682-2.968 159.97 1.223 220.294 1.561 225.158 24.585 399.92 41.4 400c23.209.108 11.607-31.39 11.607-31.39s35.829 10.343 97.664 10.746v.016l.83-.008.833.008v-.016c61.828-.403 97.66-10.747 97.66-10.747s-11.601 31.5 11.607 31.391c16.812-.08 39.835-174.843 40.177-179.705 4.187-60.326 6.36-208.613-149.444-220.22 0 0-.455-.075-.749-.075z" key="7pih2xx"/><path id="x" d="M151.5 0c-.281-.014-.829.074-.829.074C-5.137 11.682-2.968 159.97 1.223 220.294 1.561 225.158 24.585 399.92 41.4 400c23.209.108 11.607-31.39 11.607-31.39s35.829 10.343 97.664 10.746v.016l.83-.008.833.008v-.016c61.828-.403 97.66-10.747 97.66-10.747s-11.601 31.5 11.607 31.391c16.812-.08 39.835-174.843 40.177-179.705 4.187-60.326 6.36-208.613-149.444-220.22 0 0-.455-.075-.749-.075z" key="kclkptz"/><path id="z" d="M5.866 6.91 2.403 4.392 0 6.504l5.757 6.42.012-.008.008.008L16.099 2.423 14.259 0z" key="xtc631w"/><path id="C" d="M0 26.412A26.4 26.4 0 0 0 7.724 45.08a26.4 26.4 0 0 0 18.665 7.74c14.58-.01 26.393-11.831 26.389-26.408C52.784 11.833 40.97.009 26.388 0A26.4 26.4 0 0 0 7.724 7.741 26.4 26.4 0 0 0 0 26.411m11.84-8.4 14.549-6.198 14.545 6.199s-.966 22.99-14.545 22.99-14.55-22.99-14.55-22.99" key="givs697"/><linearGradient id="b" x1="50%" x2="50%" y1="-2.782%" y2="99.64%" key="jy0iy5j"><stop offset="0%" stop-color="#5EB8E6" key="gbhc1qb"/><stop offset="100%" stop-color="#26A8DF" key="qjvaob7"/></linearGradient><linearGradient id="A" x1=".001%" x2="100.006%" y1="49.999%" y2="49.999%" key="xk32itb"><stop offset="0%" stop-color="#8CC63F" key="5tcubha"/><stop offset="100%" stop-color="#38B549" key="28i1tsh"/></linearGradient><linearGradient id="D" x1="-.001%" x2="100.001%" y1="49.999%" y2="49.999%" key="4qffq53"><stop offset="0%" stop-color="#8CC63F" key="my800tu"/><stop offset="100%" stop-color="#38B549" key="5a9dn12"/></linearGradient></defs><g fill="none" fill-rule="evenodd" key="veiarl6"><g transform="translate(48)" key="vlcd3vt"><mask id="c" fill="#fff" key="nmpyfwi"><use xlink:href="#a" key="bug1yxt"/></mask><path fill="url(#b)" fill-rule="nonzero" d="M151.5 0c-.281-.014-.829.074-.829.074C-5.137 11.682-2.968 159.97 1.223 220.294 1.561 225.158 24.585 399.92 41.4 400c23.209.108 11.607-31.39 11.607-31.39s35.829 10.343 97.664 10.746v.016l.83-.008.833.008v-.016c61.828-.403 97.66-10.747 97.66-10.747s-11.601 31.5 11.607 31.391c16.812-.08 39.835-174.843 40.177-179.705 4.187-60.326 6.36-208.613-149.444-220.22 0 0-.455-.075-.749-.075z" mask="url(#c)" key="96u6qsb"/></g><g transform="translate(48)" key="mvt2q5s"><mask id="e" fill="#fff" key="e6e0r8a"><use xlink:href="#d" key="utkci7k"/></mask><path fill="#1A1A1A" fill-rule="nonzero" d="M216.766 154.942c7.655-.02 13.854-6.225 13.865-13.878-.011-7.653-6.21-13.856-13.865-13.874-7.655.018-13.855 6.22-13.869 13.874.012 7.655 6.212 13.86 13.87 13.878" mask="url(#e)" key="nxs2ayu"/></g><g transform="translate(48)" key="sduqf0e"><mask id="g" fill="#fff" key="ggqgmvr"><use xlink:href="#f" key="r1dfz7d"/></mask><path fill="#FFF" fill-rule="nonzero" d="M222.261 139.357a4.08 4.08 0 0 0 4.07-4.073 4.08 4.08 0 0 0-4.066-4.07 4.078 4.078 0 0 0-.004 8.143" mask="url(#g)" key="xke4lvw"/></g><g transform="translate(48)" key="81ffa8n"><mask id="i" fill="#fff" key="095a4y5"><use xlink:href="#h" key="t0jt1hn"/></mask><path fill="#1A1A1A" fill-rule="nonzero" d="M85.523 154.942c7.655-.02 13.853-6.225 13.864-13.878-.01-7.653-6.21-13.856-13.864-13.874-7.655.018-13.854 6.22-13.865 13.874.01 7.653 6.21 13.858 13.865 13.878" mask="url(#i)" key="urvvfzm"/></g><g transform="translate(48)" key="4gejobz"><mask id="k" fill="#fff" key="quixp0r"><use xlink:href="#j" key="wt6smsz"/></mask><path fill="#FFF" fill-rule="nonzero" d="M91.827 139.357a4.078 4.078 0 0 0 0-8.142 4.074 4.074 0 0 0 0 8.142" mask="url(#k)" key="4pokq05"/></g><g transform="translate(48)" key="0sxzvai"><mask id="m" fill="#fff" key="cgegqlr"><use xlink:href="#l" key="k6u67d3"/></mask><path fill="#1A1A1A" fill-rule="nonzero" d="M174.918 181.176a3.636 3.636 0 0 0-5.1.415c-.065.072-6.61 7.418-18.515 7.418-12.705 0-17.773-6.432-18.277-7.116a3.63 3.63 0 0 0-5.986 4.105c.286.419 7.122 10.276 24.263 10.276 15.367 0 23.684-9.56 24.026-9.958a3.654 3.654 0 0 0-.41-5.14" mask="url(#m)" key="eg3ikw6"/></g><g transform="translate(48)" key="svq2tmn"><mask id="o" fill="#fff" key="4q76hrf"><use xlink:href="#n" key="xyjmg9q"/></mask><path fill="#A7A9AC" fill-rule="nonzero" d="m224.532 273.283-72.407 42.737-72.416-42.737c0-.04 0-.085.012-.121.057-.27 4.054-3.61 10.153-8.565l.161-.14c19.996-16.25 62.09-49.524 62.09-49.524s42.085 33.274 62.077 49.523c6.195 5.027 10.265 8.424 10.322 8.71.008.032.008.08.008.117" mask="url(#o)" key="yfmi0ub"/></g><g transform="translate(48)" key="bi4peup"><mask id="q" fill="#fff" key="16rdftl"><use xlink:href="#p" key="finynsr"/></mask><path fill="#FFF" fill-rule="nonzero" d="M122.882 322.262h78.131a12.134 12.134 0 0 0 12.134-12.143v-86.262c.002-6.703-5.43-12.14-12.134-12.144h-97.898a12.134 12.134 0 0 0-12.134 12.144v66.48z" mask="url(#q)" key="tlyeh8f"/></g><g transform="translate(48)" key="7c0ff57"><mask id="s" fill="#fff" key="my9hfdk"><use xlink:href="#r" key="qf7jufo"/></mask><path fill="#D1D3D4" fill-rule="nonzero" d="M224.536 273.697v69.527a8.85 8.85 0 0 1-8.825 8.83H88.51a8.83 8.83 0 0 1-8.8-8.83v-69.527l72.41 42.733z" mask="url(#s)" key="z7mswv3"/></g><g transform="translate(48)" key="rxxr42n"><mask id="u" fill="#fff" key="tzedkkk"><use xlink:href="#t" key="hh3vvef"/></mask><path fill="#F4F4F4" fill-rule="nonzero" d="m222.072 349.326-46.61-46.645-23.357 13.785-23.37-13.79-46.61 46.65a8.74 8.74 0 0 0 6.369 2.769H215.69a8.78 8.78 0 0 0 6.377-2.77" mask="url(#u)" key="r3c5k7k"/></g><g transform="translate(48)" key="y385j6z"><mask id="w" fill="#fff" key="a50t9cr"><use xlink:href="#v" key="40x760p"/></mask><path fill="#179BC9" fill-rule="nonzero" d="M3.264 236.757c1.619 37.975 15.588 82.1 46.76 97.053 30.51 14.634 79.802 9.603 80.136-.403.181-5.421-5.024-3.876-4.698-8.396.443-6.11 10.552-2.958 9.851-10.102-.58-5.784-10.507-2.134-10.894-7.861-.495-7.293 9.123-6.017 4.469-13.02-4.65-7.004-16.526 11.937-51.183 2.193-31.24-8.779-41.84-31.419-46.337-64.938-4.497-33.524-29.352-23.884-28.1 5.474m297.089 0c-1.614 37.975-15.584 82.1-46.755 97.053-30.515 14.634-79.807 9.603-80.137-.403-.181-5.421 5.024-3.876 4.694-8.396-.443-6.11-10.551-2.958-9.847-10.102.576-5.784 10.507-2.134 10.894-7.861.491-7.293-9.122-6.017-4.473-13.02 4.654-7.004 16.526 11.937 51.184 2.193 31.24-8.779 41.84-31.419 46.336-64.938 4.497-33.524 29.352-23.884 28.104 5.474" mask="url(#w)" key="i1kwvkx"/></g><g transform="translate(48)" key="jngdxbi"><mask id="y" fill="#fff" key="k46zog5"><use xlink:href="#x" key="ahtlqg2"/></mask><path fill="#27AAE1" fill-rule="nonzero" d="M3.264 233.537c1.619 37.975 15.588 82.1 46.76 97.053 30.51 14.634 79.802 9.603 80.136-.403.181-5.421-5.024-3.876-4.698-8.396.443-6.11 10.552-2.958 9.851-10.102-.58-5.784-10.507-2.134-10.894-7.857-.495-7.297 9.123-6.021 4.469-13.025-4.65-7.003-16.526 11.938-51.183 2.194-31.24-8.782-41.84-31.419-46.337-64.938-4.497-33.524-29.352-23.884-28.1 5.474m297.089 0c-1.614 37.975-15.584 82.1-46.755 97.053-30.515 14.634-79.807 9.603-80.137-.403-.181-5.421 5.024-3.876 4.694-8.396-.443-6.11-10.551-2.958-9.847-10.102.576-5.784 10.507-2.134 10.894-7.861.491-7.293-9.122-6.017-4.473-13.02 4.654-7.004 16.526 11.937 51.184 2.193 31.24-8.782 41.84-31.419 46.336-64.938 4.497-33.524 29.352-23.884 28.104 5.474" mask="url(#y)" key="ya3e5if"/></g><g transform="translate(192.927 255.183)" key="umvse2q"><mask id="B" fill="#fff" key="15v9mky"><use xlink:href="#z" key="25y6wym"/></mask><path fill="url(#A)" fill-rule="nonzero" d="M5.866 6.91 2.403 4.392 0 6.504l5.757 6.42.012-.008.008.008L16.099 2.423 14.259 0z" mask="url(#B)" key="ej8gpb2"/></g><g transform="translate(173.603 234.253)" key="hnsbkbg"><mask id="E" fill="#fff" key="40dondo"><use xlink:href="#C" key="hayzu3z"/></mask><path fill="url(#D)" fill-rule="nonzero" d="M0 26.412A26.4 26.4 0 0 0 7.724 45.08a26.4 26.4 0 0 0 18.665 7.74c14.58-.01 26.393-11.831 26.389-26.408C52.784 11.833 40.97.009 26.388 0A26.4 26.4 0 0 0 7.724 7.741 26.4 26.4 0 0 0 0 26.411m11.84-8.4 14.549-6.198 14.545 6.199s-.966 22.99-14.545 22.99-14.55-22.99-14.55-22.99" mask="url(#E)" key="6aes7jo"/></g><text fill="#43B0E3" fill-rule="nonzero" font-family="Helvetica" font-size="8.05" transform="translate(336.368 344.536)" key="j9d6vyl">
                    <tspan x=".001" y="8" key="3td7xyb">TM</tspan>
                </text></g></svg>