<svg xmlns="http://www.w3.org/2000/svg" fill="none" viewBox="0 0 24 24" key="4a57vpv"><rect width="24" height="24" fill="#010101" rx="4" key="srnmblu"/><path fill="#fff" fill-rule="evenodd" d="M7.408 4.644c1.544-1.1 3.088-.762 4.516.786v.002c1.429 1.55 3.011 4.573 2.468 7.78a5.8 5.8 0 0 1-.693 1.967 4.92 4.92 0 0 1-3.11 2.276 5.65 5.65 0 0 1-4.268-.607 5 5 0 0 1-.468-.34 5.65 5.65 0 0 1-1.903-3.934c-.063-.841-.001-1.688.184-2.511.169-.757.422-1.492.756-2.192a8.2 8.2 0 0 1 2.518-3.227m-1.21 4.355c.177-.628.8-2.458 2.273-3.379a.24.24 0 1 0-.253-.41 5.57 5.57 0 0 0-1.982 2.337 8 8 0 0 0-.504 1.322.24.24 0 0 0 .184.301.24.24 0 0 0 .282-.17" clip-rule="evenodd" key="22d5vhc"/><path fill="#fff" d="M10.375 18.601a5.27 5.27 0 0 0 5.525-.712c2.615-2.178 3.34-6.626 3.34-6.626s.462-2.305-.388-3.635-2.952-1.319-4.874-.661a13.6 13.6 0 0 1 1.387 5.602 6.21 6.21 0 0 1-4.989 6.03" key="oxpj3hy"/></svg>