<svg xmlns="http://www.w3.org/2000/svg" viewBox="1 1 1022 1023" key="6dax348"><path fill="#D81E06" stroke="null" d="M512 1024C230.95 1024 1 793.825 1 512.5S230.95 1 512 1s511 230.175 511 511.5S793.05 1024 512 1024z" key="odtm9pv"/><path fill="#FFF" d="M721.664 467.968h-235.52a22.27 22.27 0 0 0-20.736 20.736v51.776c0 10.368 10.368 20.736 20.736 20.736H628.48c10.368 0 20.736 10.304 20.736 20.672v10.368c0 33.664-28.48 62.08-62.144 62.08H392.896a22.27 22.27 0 0 1-20.672-20.672V436.928c0-33.664 28.48-62.08 62.08-62.08h287.36a22.27 22.27 0 0 0 20.736-20.736v-51.84a22.27 22.27 0 0 0-20.736-20.672h-287.36A152.96 152.96 0 0 0 281.6 434.368v287.36c0 10.304 10.368 20.672 20.736 20.672h302.848c75.072 0 137.216-62.08 137.216-137.216v-116.48a22.27 22.27 0 0 0-20.736-20.736" key="fgf6bmi"/></svg>