<svg xmlns="http://www.w3.org/2000/svg" id="Layer_1" data-name="Layer 1" version="1.1" viewBox="0 0 512 512" key="oiqnyzy"><defs id="defs10" key="56a88de"><clipPath id="clip-path" key="ztj78kt"><path id="rect4" d="M-1018.6 565.7H862.6v1175.8h-1881.2z" key="u4ox4uw"/></clipPath><clipPath id="clip-path-2" key="or9wbki"><path id="rect7" d="M0 0h512v512H0z" key="tpxnp1q"/></clipPath><style id="style2" key="jyu1q6t">.cls-1{fill:none}.cls-24{fill:#d0d0d0}.cls-26{fill:#d9d9d9}.cls-28{fill:#d8d8d8}.cls-29{fill:#e2e2e2}.cls-31{fill:#dedede}.cls-36{fill:#00b8e3}.cls-37{fill:#33c6e9}.cls-38{fill:#008aaa}</style></defs><g id="g36" clip-path="url(#clip-path)" key="k9jhybe"><path id="path14" d="m-42.8 358 245 24.8 199.4 2Z" fill="#b17c81" stroke="#b17c81" stroke-width="1.51px" key="mwq1vd5"/><path id="path16" d="m-42.8 358 444.4 26.8 227.2-2Z" stroke-width="1.51px" fill="#a2747c" stroke="#a2747c" key="r54jvtq"/><path id="path18" d="m401.6 384.7 163.7 139 63.5-141Z" stroke-width="1.51px" fill="#996976" stroke="#996976" key="4tnsanq"/><path id="path20" d="m202.2 382.8 54.6 14.8 144.8-12.9Z" stroke-width="1.51px" fill="#aa787e" stroke="#aa787e" key="mtywjp0"/><path id="path22" d="M401.6 384.7 356 537.5l209.3-13.9Z" stroke-width="1.51px" fill="#b2777e" stroke="#b2777e" key="0xjrqtj"/><path id="path24" d="m256.8 397.6 99.2 140 45.6-152.9Z" stroke-width="1.51px" fill="#b27a7f" stroke="#b27a7f" key="upv9ktf"/><path id="path26" d="m256.8 397.6-92.3 136 191.5 4Z" stroke-width="1.51px" fill="#c78485" stroke="#c78485" key="xzhn1n4"/><path id="path28" d="m202.2 382.8-37.7 150.7 92.3-135.9Z" stroke-width="1.51px" fill="#c08184" stroke="#c08184" key="h82pug3"/><path id="path30" d="m-42.8 358 207.3 175.5 37.7-150.7Z" stroke-width="1.51px" fill="#c48485" stroke="#c48485" key="8fufhdt"/><path id="path32" d="m-42.8 358-51.6 137.9 259 37.7Z" stroke-width="1.51px" fill="#d58b88" stroke="#d58b88" key="h0ctcho"/><path id="path34" d="M-94.4 495.9-34 598l198.4-64.5Z" stroke-width="1.51px" fill="#e09790" stroke="#e09790" key="xhqy0da"/></g><g id="g110" clip-path="url(#clip-path-2)" key="pnaitt9"><path id="path38" d="M438.5 152c-1.4 0-2.7-.7-3.3-1.9L377.4 50a4 4 0 0 0-3.4-2H138.3a4 4 0 0 0-3.3 2L75 153.8 19.2 254a3.9 3.9 0 0 0 0 3.8L75 358l60 104c.7 1.2 2 1.9 3.3 1.9H374a4 4 0 0 0 3.4-1.9l57.8-100.1c.7-1.2 2-1.9 3.3-1.9h72c2.3 0 4.3-2 4.3-4.3V156.3c0-2.4-2-4.3-4.3-4.3z" fill="#4d4d4d" key="h32lal6"/><path id="path27674" fill="#e2e2e2" fill-opacity="1" stroke="none" stroke-linecap="butt" stroke-linejoin="miter" stroke-opacity="1" stroke-width="1" d="M72.9 157.6 17.6 256l5.8 13 54.9 89.5 35.8 1.5H461l38.3-9.7 15.5-42.8v-95.1l-4.3-60.4H147.9z" key="m5uw46r"/><path id="path40" d="M510.5 152H78.3a4 4 0 0 0-3.3 1.9l-2.1 3.7-26.5 45.9L17.2 254a3.8 3.8 0 0 0 0 3.8l6.3 11L75 358.1a3.8 3.8 0 0 0 3.3 1.9h432.2a4.3 4.3 0 0 0 4.3-4.3V156.3a4.3 4.3 0 0 0-4.3-4.3" key="x016zqw"/><path id="path42" d="m88.1 245.5-64.6 23.4-6.3-11a3.8 3.8 0 0 1 0-3.8l29.2-50.6Z" fill="#e1e1e1" key="pnpx6fq"/><path id="polygon44" d="m472.2 264.2 42.6-6.1v49.4z" fill="#c8c8c8" key="6hkep8q"/><path id="path46" d="m472.2 264.2 42.6 43.3v48.2a4.3 4.3 0 0 1-4.3 4.3H461Z" fill="#c2c2c2" key="yzaotpw"/><path id="polygon48" d="M472.2 264.2 461 360h-59.5l-18.1-43.5z" fill="#c7c7c7" key="9qjjii2"/><path id="polygon50" d="m472.2 264.2 42.6-51.8v45.7z" fill="#cecece" key="p80cvif"/><path id="path52" d="M514.8 156.3v56.1l-42.6 51.8-32-112.2h70.3a4.3 4.3 0 0 1 4.3 4.3" fill="#d3d3d3" key="66ngtva"/><path id="polygon54" d="M401.5 360h-31.4l-8.2-11.7 21.5-31.8z" fill="#c6c6c6" key="dfkvm93"/><path id="polygon56" d="m472.2 264.2-117.8-49.8 62-62.4h23.7z" fill="#d5d5d5" key="st1bt6f"/><path id="path58" d="m354.4 214.4 29 102.1 88.8-52.3Z" key="jufvjiv"/><path id="polygon60" d="M370.1 360h-8.6l.4-11.7z" fill="#bfbfbf" key="qur0bq2"/><path id="polygon62" d="m416.4 152-62 62.4-11.2-55.8 24-6.6z" key="woake5o"/><path id="path64" d="m354.4 214.4-143 33 150.5 101Z" fill="#d4d4d4" key="kk7ijcw"/><path id="path66" d="m354.4 214.4 7.5 134 21.5-31.9Z" key="5xpefx8"/><path id="path68" d="m343.2 158.6-131.7 88.8 143-33Z" key="kfvah19"/><path id="polygon70" d="m211.5 247.4-62 112.6h-35.3L88.1 245.5z" key="mim54c5"/><path id="path72" d="m148 152-60 93.5-15.2-87.9L75 154a4 4 0 0 1 3.3-1.9H148Z" key="83iwjch"/><path id="path74" d="M114.2 360H78.3a3.8 3.8 0 0 1-3.3-2l-51.5-89 64.6-23.5Z" key="pnmgboj"/><path id="polygon76" d="m46.4 203.5 26.4-45.9 15.3 87.9z" fill="#e4e4e4" key="8zlfy2m"/><path id="polygon78" d="M276.8 152H172.4l39.1 95.4 131.7-88.8-39.7-6.6z" key="5ai6788"/><path id="polygon80" d="M156.1 152h-8.2l-59.8 93.5 123.4 1.9-39.1-95.4z" key="voll8r3"/><path id="polygon82" d="M333.2 360h28.3l.4-11.7z" fill="#c5c5c5" key="5cul2k3"/><path id="polygon84" d="M361.9 348.3 211.5 247.4 238.6 360h94.6z" key="zsnm3ys"/><path id="polygon86" d="M149.5 360h89.1l-27.1-112.6z" fill="#d1d1d1" key="tek4bzl"/><path id="polygon88" d="m343.6 152-.4 6.6 24-6.6h-23.6" fill="#ddd" key="mej2v66"/><path id="polygon90" d="m303.5 152 39.7 6.6-3.6-6.6z" fill="#e3e3e3" key="n2rnqny"/><path id="polygon92" d="m339.6 152 3.6 6.6.4-6.6z" key="gxygn75"/><path id="path94" d="M235.2 153.8 177 254.5a3.4 3.4 0 0 0-.4 1.6H136l79.7-138.2a3.1 3.1 0 0 1 1.2 1.2h.1l18 31.5a3.5 3.5 0 0 1 0 3.2Z" key="qp4e6bs"/><path id="path96" d="m235 361.9-18 31.3a3.5 3.5 0 0 1-1.1 1.1L136 256.1h40.6a3 3 0 0 0 .4 1.6.4.4 0 0 0 0 .2l58 100.6a3.4 3.4 0 0 1 0 3.4" key="9lpvnck"/><path id="path98" d="m215.8 118-79.7 138-20 34.7L97 257.6a3 3 0 0 1-.4-1.5 3.4 3.4 0 0 1 .4-1.7l19.3-33.4 58.8-101.7a3.4 3.4 0 0 1 3-1.8h36a3.6 3.6 0 0 1 1.7.4Z" key="1v524rp"/><path id="path100" d="M215.8 394.3a3.6 3.6 0 0 1-1.7.5H178a3.4 3.4 0 0 1-3-1.8l-53.7-93-5.3-9.2 20-34.7Z" key="30z6kfh"/><path id="path102" d="m376.2 256.1-79.8 138.2a3.7 3.7 0 0 1-1.2-1.1v-.1L277 361.7a3.5 3.5 0 0 1 0-3.2l58-100.6a3.4 3.4 0 0 0 .6-1.8H376Z" key="hvtgkh2"/><path id="path104" d="M415.7 256.1a3.4 3.4 0 0 1-.5 1.8L337 393.2a3.4 3.4 0 0 1-3 1.6h-36a3.7 3.7 0 0 1-1.7-.5l79.8-138.2 20-34.6 19 32.9a3.4 3.4 0 0 1 .5 1.7Z" key="ab5kjzz"/><path id="path106" d="M376.2 256.1h-40.6a3.4 3.4 0 0 0-.5-1.7l-58-100.6a3.4 3.4 0 0 1 0-3.4l18.1-31.3a3.7 3.7 0 0 1 1.2-1.2Z" key="fjzf7p7"/><path id="path108" d="m396.2 221.4-20 34.7-79.8-138.2a3.7 3.7 0 0 1 1.7-.4h36a3.4 3.4 0 0 1 3 1.6Z" key="l4qpc45"/></g></svg>