<svg xmlns="http://www.w3.org/2000/svg" fill="none" viewBox="0 0 48 48" key="wl7rvc9"><rect width="48" height="48" fill="#F2F5F9" rx="8" key="egv2ec8"/><g fill="#000" fill-rule="evenodd" clip-path="url(#a)" clip-rule="evenodd" key="b6h1o2g"><path d="M14.57 29.765c-.73 0-1.392.005-2.054-.007-.075-.001-.164-.082-.22-.148q-2.17-2.553-4.335-5.11l-.182-.208v5.456H6V18.018h1.761v5.381c.096-.108.149-.162.196-.221 1.315-1.66 2.632-3.317 3.943-4.98.11-.138.219-.2.4-.197.612.012 1.224.005 1.904.005l-4.761 5.793zM32.113 25.697c-.004-.543-.089-.962-.265-1.36-.715-1.618-2.774-1.96-3.912-.652-.81.932-.91 2.463-.228 3.494.708 1.072 2.009 1.431 3.077.822.923-.527 1.288-1.384 1.328-2.304m-.187-3.53v-4.133h1.662v11.741c-.381 0-.764.004-1.147-.006-.04-.001-.09-.083-.116-.137-.104-.216-.2-.435-.307-.675-.498.486-1.08.745-1.733.863-1.96.352-3.89-.799-4.467-2.71-.48-1.591-.31-3.102.761-4.426 1.105-1.365 3.125-1.796 4.613-1.012.253.133.477.32.734.494M40.375 24.919c.006-1.067-1.032-2.017-2.209-2.036-1.172-.02-2.183.907-2.21 2.036zm-4.428 1.417c.042.84.738 1.65 1.604 1.867.936.233 1.742.008 2.391-.727.048-.054.125-.114.19-.115.545-.01 1.091-.006 1.666-.006a4.04 4.04 0 0 1-.91 1.45c-.768.782-1.72 1.086-2.795 1.066-2.011-.037-3.644-1.537-3.887-3.552-.14-1.155.006-2.253.65-3.236.855-1.305 2.084-1.925 3.634-1.76 1.526.163 2.565 1.042 3.153 2.443.33.786.456 1.613.275 2.465-.006.027-.016.054-.032.105zM24.942 29.768h-1.667v-.254c0-1.542.005-3.085-.004-4.627-.005-.853-.604-1.66-1.392-1.913-1.14-.366-2.385.413-2.585 1.623a3 3 0 0 0-.038.502q-.002 2.193-.001 4.385v.278h-1.657v-8.37c.378 0 .754-.005 1.13.006.047.002.106.086.134.144.104.214.198.434.303.668.828-.784 1.809-1.004 2.873-.887 1.38.153 2.533 1.25 2.806 2.64.063.32.1.651.102.978.01 1.55.005 3.099.005 4.649 0 .05-.005.101-.009.178M14.999 29.767h1.65v-8.37H15zM16.848 19.052a1.033 1.033 0 0 1-1.032 1.025 1.054 1.054 0 0 1-1.023-1.02c-.007-.548.477-1.036 1.029-1.037a1.04 1.04 0 0 1 1.026 1.032" key="3jeuha5"/></g><defs key="vy5dy4z"><clipPath id="a" key="4njdv7f"><path fill="#fff" d="M6 18h36v11.883H6z" key="8js53bq"/></clipPath></defs></svg>