<svg xmlns="http://www.w3.org/2000/svg" fill="none" viewBox="0 0 118 36" key="s741t39"><g fill-rule="evenodd" clip-path="url(#a)" clip-rule="evenodd" key="gcsz1ct"><path fill="#191C1D" d="M0 5.621C0 4.587 0 4.07.19 3.653c.167-.366.436-.677.775-.895.385-.248.896-.321 1.918-.468L17.463.196c1.323-.19 1.985-.285 2.5-.084.45.176.828.503 1.066.925.271.482.271 1.151.271 2.49v28.946c0 1.339 0 2.008-.271 2.49a2.1 2.1 0 0 1-1.067.925c-.514.2-1.175.106-2.499-.084L2.883 33.71c-1.022-.147-1.533-.22-1.918-.468a2.1 2.1 0 0 1-.775-.895C0 31.93 0 31.412 0 30.379zm14.7 9.806c0-.31 0-.464.058-.587a.6.6 0 0 1 .236-.258c.117-.07.27-.083.58-.111l1.38-.126c.362-.033.544-.05.684.011a.6.6 0 0 1 .289.264c.073.134.073.317.073.681V20.7c0 .364 0 .547-.073.68a.6.6 0 0 1-.29.265c-.14.06-.32.044-.684.01l-1.38-.125c-.308-.028-.462-.042-.579-.11a.6.6 0 0 1-.236-.26c-.058-.121-.058-.276-.058-.586zM25.44 3H23.4v30h2.04c1.176 0 1.764 0 2.213-.229a2.1 2.1 0 0 0 .918-.918c.229-.449.229-1.037.229-2.213V6.36c0-1.176 0-1.764-.229-2.213a2.1 2.1 0 0 0-.918-.918C27.204 3 26.616 3 25.44 3" key="lark8jh"/><path fill="url(#b)" d="M0 5.621C0 4.587 0 4.07.19 3.653c.167-.366.436-.677.775-.895.385-.248.896-.321 1.918-.468L17.463.196c1.323-.19 1.985-.285 2.5-.084.45.176.828.503 1.066.925.271.482.271 1.151.271 2.49v28.946c0 1.339 0 2.008-.271 2.49a2.1 2.1 0 0 1-1.067.925c-.514.2-1.175.106-2.499-.084L2.883 33.71c-1.022-.147-1.533-.22-1.918-.468a2.1 2.1 0 0 1-.775-.895C0 31.93 0 31.412 0 30.379zm14.7 9.806c0-.31 0-.464.058-.587a.6.6 0 0 1 .236-.258c.117-.07.27-.083.58-.111l1.38-.126c.362-.033.544-.05.684.011a.6.6 0 0 1 .289.264c.073.134.073.317.073.681V20.7c0 .364 0 .547-.073.68a.6.6 0 0 1-.29.265c-.14.06-.32.044-.684.01l-1.38-.125c-.308-.028-.462-.042-.579-.11a.6.6 0 0 1-.236-.26c-.058-.121-.058-.276-.058-.586zM25.44 3H23.4v30h2.04c1.176 0 1.764 0 2.213-.229a2.1 2.1 0 0 0 .918-.918c.229-.449.229-1.037.229-2.213V6.36c0-1.176 0-1.764-.229-2.213a2.1 2.1 0 0 0-.918-.918C27.204 3 26.616 3 25.44 3" key="7i9tmsc"/></g><path fill="#fff" fill-rule="evenodd" d="M55.039 27c.089 0 .161-.072.161-.161V24.01a.16.16 0 0 0-.161-.162H47.35a.16.16 0 0 1-.161-.161V7.96a.16.16 0 0 0-.161-.161H43.66a.16.16 0 0 0-.161.161V26.84c0 .089.072.16.161.16zm31.211.56V12.612a.16.16 0 0 0-.161-.161H82.85a.16.16 0 0 0-.161.161v.209c0 .122-.13.2-.24.147a6.4 6.4 0 0 0-.874-.346q-.93-.32-1.706-.321-2.175-.002-3.788.932a6.4 6.4 0 0 0-2.486 2.598l-.001.002c-.565 1.108-.845 2.232-.845 3.694q-.001 2.25.844 3.942a6.26 6.26 0 0 0 2.43 2.6q1.614.933 3.79.932.83 0 1.707-.322a6.5 6.5 0 0 0 1.169-.512v1.366c0 .728-.34 1.51-1.013 2.006l-.002.001c-.666.503-1.538.77-2.63.79a7.4 7.4 0 0 1-2.084-.333h-.002l-.002-.001a12 12 0 0 1-2.05-.84l-.02-.011a.16.16 0 0 0-.217.069l-1.132 2.18a.16.16 0 0 0 .046.203l.21.157q.533.383 1.26.674.724.289 1.476.462.777.201 1.472.288l.207.025c.409.05.804.098 1.056.098 1.605 0 2.584-.2 3.636-.667 1.07-.466 1.895-1.13 2.466-1.994.59-.865.883-1.894.883-3.078m-6.351-3.857c-.729 0-1.358-.18-1.896-.538-.54-.39-1.016-.904-1.254-1.474-.275-.657-.382-1.293-.382-2.165 0-.834.14-1.405.414-2.043v-.002q.41-.981 1.195-1.547c.537-.374 1.175-.565 1.923-.565q1.044 0 1.886.436l.002.001q.387.193.786.508c.075.06.117.15.117.246v6.08a.31.31 0 0 1-.11.239 3 3 0 0 1-.686.433c-.677.323-1.265.391-1.995.391M63.56 27h-.002c-1.465 0-2.74-.305-3.817-.922a6.26 6.26 0 0 1-2.48-2.57q-.862-1.673-.861-3.844-.001-2.228.89-3.875a6.45 6.45 0 0 1 2.507-2.567l.001-.001q1.646-.922 3.816-.921 2.198-.002 3.79.922a6.45 6.45 0 0 1 2.505 2.567q.892 1.647.891 3.847.002 2.173-.919 3.847a6.4 6.4 0 0 1-2.506 2.595h-.001l-.001.001q-1.617.894-3.813.92m3.185-5.158v-.002q.461-.973.462-2.204 0-1.263-.435-2.236-.431-.97-1.23-1.502l-.002-.002h-.002c-.529-.371-1.167-.56-1.924-.56q-1.074.001-1.898.56a3.73 3.73 0 0 0-1.289 1.534q-.433.974-.462 2.208 0 1.261.435 2.234a3.54 3.54 0 0 0 1.258 1.53q.823.532 1.928.534c.757 0 1.395-.189 1.924-.56q.802-.56 1.234-1.532zm27.454-6.46c0-.09.072-.162.161-.162h2.72c.09 0 .162-.072.162-.161v-2.431a.16.16 0 0 0-.162-.162h-2.72a.16.16 0 0 1-.161-.16V7.96a.16.16 0 0 0-.162-.161h-3.164a.16.16 0 0 0-.161.161v4.344a.16.16 0 0 1-.162.161h-2.037a.16.16 0 0 0-.161.164l.028 2.43c.001.089.073.16.162.16h2.008c.09 0 .162.072.162.161v6.793c0 1.026.2 1.908.612 2.64l.002.002v.002a4.26 4.26 0 0 0 1.757 1.625c.741.374 1.63.557 2.662.557q.444 0 .938-.118.516-.115.951-.291c.314-.12.902-.438 1.08-.558l.007-.005a.16.16 0 0 0 .047-.218l-1.322-2.14a.16.16 0 0 0-.2-.065l-.004.002a3 3 0 0 1-.579.19q-.347.08-.693.08c-.615 0-1.046-.201-1.325-.582-.293-.419-.446-.958-.446-1.632zM106.46 27h-.002q-2.199.002-3.817-.922a6.26 6.26 0 0 1-2.48-2.57q-.863-1.673-.861-3.844-.002-2.228.891-3.875a6.45 6.45 0 0 1 2.506-2.567l.001-.001q1.646-.922 3.816-.921c1.464 0 2.73.305 3.789.922a6.45 6.45 0 0 1 2.506 2.567q.893 1.647.891 3.847.001 2.173-.919 3.847a6.4 6.4 0 0 1-2.506 2.595h-.001l-.001.001q-1.617.894-3.813.92m3.185-5.158.001-.002q.46-.973.461-2.204 0-1.263-.435-2.236-.431-.97-1.23-1.502l-.002-.002h-.002c-.529-.371-1.167-.56-1.924-.56q-1.074.001-1.898.56a3.73 3.73 0 0 0-1.289 1.534q-.433.974-.462 2.208.001 1.261.435 2.234a3.53 3.53 0 0 0 1.258 1.53q.822.532 1.928.534c.757 0 1.395-.189 1.924-.56q.802-.56 1.234-1.532z" clip-rule="evenodd" key="qh5ww2o"/><defs key="dk1rz7a"><linearGradient id="b" x1="-8.914" x2="26.963" y1="24.896" y2="10.816" gradientUnits="userSpaceOnUse" key="xil3qo1"><stop stop-color="#4B2EFB" key="c0cajc5"/><stop offset="1" stop-color="#E65FFC" key="q0a3e26"/></linearGradient><clipPath id="a" key="ockzkrj"><path fill="#fff" d="M0 0h28.8v36H0z" key="ck5zlr1"/></clipPath></defs></svg>