<svg xmlns="http://www.w3.org/2000/svg" xml:space="preserve" id="圖層_1" x="0" y="0" version="1.1" viewBox="0 0 521.1 100" key="d4c73vp"><style key="1r1u9k2">.st0{fill:#03cf5d}</style><path d="m150 0-39.2 100H144l4.8-13.2h37.5l4.8 13.2h33.3L185.3 0zm6.5 62.7 11.1-31.2 11.2 31.2zM363.2 62h45.6V38h-45.6V24.5h46.1V0h-77.9v100h78.9V75.5h-47.1zM264.2 65.8 240.7 0h-33.3l39.2 100h35.3L321.1 0h-33.4zM68.1 53.5 30.9 0H0v100h32.4V46.5L69.6 100h30.9V0H68.1zM495.8 65.7l3-1.3c11.7-4.8 17.6-15.4 17.6-28.7 0-12.7-4.6-22-13.7-27.8A62.4 62.4 0 0 0 468.2 0H426v100h31.4V72h11.2l19.1 28h33.4zM474 46.6h-17V25.5h17a10.5 10.5 0 0 1 0 21z" key="p2cbk1e"/></svg>