<svg xmlns="http://www.w3.org/2000/svg" fill="none" viewBox="0 0 58 57" key="5rkzlsm"><path fill="#00E0D9" fill-rule="evenodd" d="M0 9.828C0 4.4 4.477 0 10 0h37.999c5.523 0 10 4.4 10 9.828v31.761c0 5.616-7.23 8.052-10.737 3.62l-10.963-13.86v16.806c0 4.885-4.03 8.845-9 8.845H10C4.478 57 0 52.6 0 47.172zm10-1.966c-1.105 0-2 .88-2 1.966v37.344c0 1.086.895 1.966 2 1.966h17.6c.552 0 .7-.44.7-.983V25.618c0-5.615 7.23-8.052 10.736-3.62L50 35.859V9.828c0-1.086.104-1.966-1-1.966z" clip-rule="evenodd" key="oljxrqq"/><path fill="url(#a)" fill-rule="evenodd" d="M0 9.828C0 4.4 4.477 0 10 0h37.999c5.523 0 10 4.4 10 9.828v31.761c0 5.616-7.23 8.052-10.737 3.62l-10.963-13.86v16.806c0 4.885-4.03 8.845-9 8.845H10C4.478 57 0 52.6 0 47.172zm10-1.966c-1.105 0-2 .88-2 1.966v37.344c0 1.086.895 1.966 2 1.966h17.6c.552 0 .7-.44.7-.983V25.618c0-5.615 7.23-8.052 10.736-3.62L50 35.859V9.828c0-1.086.104-1.966-1-1.966z" clip-rule="evenodd" key="lt4oo3w"/><path fill="url(#b)" fill-opacity=".4" fill-rule="evenodd" d="M0 9.828C0 4.4 4.477 0 10 0h37.999c5.523 0 10 4.4 10 9.828v31.761c0 5.616-7.23 8.052-10.737 3.62l-10.963-13.86v16.806c0 4.885-4.03 8.845-9 8.845H10C4.478 57 0 52.6 0 47.172zm10-1.966c-1.105 0-2 .88-2 1.966v37.344c0 1.086.895 1.966 2 1.966h17.6c.552 0 .7-.44.7-.983V25.618c0-5.615 7.23-8.052 10.736-3.62L50 35.859V9.828c0-1.086.104-1.966-1-1.966z" clip-rule="evenodd" key="s9ze0fy"/><path fill="#63F655" d="M48 0c5.523 0 10 4.4 10 9.828v31.761c0 5.616-7.23 8.052-10.737 3.62l-10.962-13.86v16.806c0 4.885-4.03 8.845-9 8.845.552 0 1-.44 1-.983v-30.4c0-5.614 7.23-8.051 10.737-3.618L50 35.859V1.965C50 .88 49.105 0 48 0" key="ymz7gz2"/><defs key="hglowcx"><linearGradient id="a" x1="57.999" x2="7.997" y1="57" y2="-.861" gradientUnits="userSpaceOnUse" key="pq7kwyn"><stop stop-color="#62F755" key="d3bhnqb"/><stop offset="1" stop-color="#8FF986" stop-opacity="0" key="oco1peo"/></linearGradient><linearGradient id="b" x1="57.999" x2="23.709" y1="57" y2="43.429" gradientUnits="userSpaceOnUse" key="a23m1ah"><stop stop-opacity=".9" key="3293rc3"/><stop offset="1" stop-color="#1A1A1A" stop-opacity="0" key="r4wzato"/></linearGradient></defs></svg>