<svg xmlns="http://www.w3.org/2000/svg" preserveAspectRatio="xMidYMid" viewBox="0 0 256 226" key="chrlens"><path fill="#05BDBA" d="M69.2 188.1h-2.4L54.7 176v-2.4l18.4-18.4h12.8l1.7 1.7v12.7zM54.7 51.6v-2.4l12.1-12.1h2.4l18.4 18.5v12.8l-1.7 1.7H73.1z" key="svh53kt"/><path fill="#014847" d="M161 149.2h-17.6l-1.5-1.5v-41c0-7.4-2.9-13-11.7-13.2-4.5-.1-9.7 0-15.3.2l-.8.8v53.2l-1.5 1.5H95.1l-1.5-1.5V77.5l1.5-1.4h39.5a27.8 27.8 0 0 1 27.8 27.8v43.8l-1.5 1.5Z" key="ylf4qs7"/><path fill="#05BDBA" d="M71.7 122.9H1.5L0 121.4v-17.6l1.5-1.4h70.2l1.4 1.4v17.6zM254.5 122.9h-70.2l-1.4-1.5v-17.6l1.4-1.4h70.2l1.5 1.4v17.6zM117.9 54.1V1.5l1.4-1.5h17.6l1.5 1.5v52.6l-1.5 1.5h-17.6zM117.9 223.8v-52.7l1.4-1.4h17.6l1.5 1.4v52.7l-1.5 1.5h-17.6z" key="6mwt1f0"/></svg>