<svg xmlns="http://www.w3.org/2000/svg" viewBox="59 48 218 219" key="sgw2ufa"><defs key="2a2hkcz"><clipPath id="a" key="yy401kx"><path d="M0 0h336v315H0z" key="96wyn3e"/></clipPath><filter id="b" width="104" height="104" x="188.001" y="33.001" filterUnits="userSpaceOnUse" key="wdj0yli"><feOffset key="rqqwhfk"/><feGaussianBlur result="blur" stdDeviation="5" key="dy9atd5"/><feFlood flood-opacity=".149" key="3wmyx81"/><feComposite in2="blur" operator="in" key="6spaquf"/><feComposite in="SourceGraphic" key="a1m1nwv"/></filter></defs><g clip-path="url(#a)" data-name="Artboard – 16" key="cmhh65n"><g data-name="Group 9" key="py2nahx"><path fill="#fff" d="M209.001 267.001h-100a49.96 49.96 0 0 1-50-50v-100a49.96 49.96 0 0 1 50-50h93.809a41.8 41.8 0 0 0 8.2 46.842 40.9 40.9 0 0 0 13.033 8.894 40.58 40.58 0 0 0 34.961-1.455v95.719a49.96 49.96 0 0 1-50 50Z" data-name="Subtraction 1" key="4iuc6l4"/><g filter="url(#b)" transform="translate(.001 .001)" key="3y4yo55"><circle cx="37" cy="37" r="37" fill="red" data-name="Ellipse 1" transform="translate(203 48)" key="dweh4je"/></g></g></g></svg>