<svg xmlns="http://www.w3.org/2000/svg" viewBox="59 48 218 219" key="0l0797n"><defs key="krnjcq7"><clipPath id="a" key="rqqaxr7"><path d="M0 0h336v315H0z" key="y21lh0g"/></clipPath><filter id="b" width="104" height="104" x="188.001" y="33.001" filterUnits="userSpaceOnUse" key="emi4oh1"><feOffset key="29ewwvz"/><feGaussianBlur result="blur" stdDeviation="5" key="lspnm3z"/><feFlood flood-opacity=".149" key="dw0sa19"/><feComposite in2="blur" operator="in" key="tcu2u6r"/><feComposite in="SourceGraphic" key="d7sovfy"/></filter></defs><g clip-path="url(#a)" data-name="Artboard – 16" key="p72axgv"><g data-name="Group 9" key="bodeth6"><path fill="#021928" d="M209.001 267.001h-100a49.96 49.96 0 0 1-50-50v-100a49.96 49.96 0 0 1 50-50h93.809a41.8 41.8 0 0 0 8.2 46.842 40.9 40.9 0 0 0 13.033 8.894 40.58 40.58 0 0 0 34.961-1.455v95.719a49.96 49.96 0 0 1-50 50Z" data-name="Subtraction 1" key="lie8g7e"/><g filter="url(#b)" transform="translate(.001 .001)" key="gi73wjv"><circle cx="37" cy="37" r="37" fill="red" data-name="Ellipse 1" transform="translate(203 48)" key="jkt64d8"/></g></g></g></svg>