<svg xmlns="http://www.w3.org/2000/svg" xml:space="preserve" viewBox="0 0 323.9 108.8" key="amx6u6y"><path fill="#1c1f2a" d="M107.2 36.1c.7-4.7 4.7-10.3 12.6-10.3 7.2 0 11.4 5.2 11.9 10.3zm-9.9 3.6c0 12.8 9.2 21.3 22.6 21.3 8.7 0 14.6-4.3 17.9-8.1.4-.4.4-.9.2-1.3l-.2-.2-4.7-4.5c-.4-.4-1.1-.4-1.6 0-2.5 2.2-6.1 5.4-11.9 5.4-6.7 0-11.4-4-12.6-9.2h32.7c.7 0 1.3-.4 1.6-1.1v-2.2c0-12.1-7.8-22.2-21.3-22.2-14.2.1-22.7 10-22.7 22.1m50.2 19.5c0 .4.2 1.1.9 1.1h7.2c.4 0 1.1-.2 1.1-.9V.9c0-.4-.2-.9-.9-.9h-7.4c-.7 0-.9.4-.9.9zm-64.8 0c0 .4.2 1.1.9 1.1h7.2c.4 0 1.1-.2 1.1-.9V35.9c0-9.9-5.8-18.2-18.4-18.2h-.2a20 20 0 0 0-13.5 4.5V20c0-.7-.4-1.1-.9-1.1h-7c-.4 0-1.1.2-1.1.9v39.7c0 .4.2 1.1.9 1.1H59c.4 0 1.1-.2 1.1-.9V37.5c0-6.7 3.6-11.9 11.7-11.9S83 30.5 83 37.4zm132.5 12.3c3.1 3.8 9.9 8.3 19.5 8.3 13.2 0 21.3-8.1 21.3-21.1V20c0-.4-.2-1.1-.9-1.1h-6.9c-.4 0-1.1.2-1.1.9v2.4a18.5 18.5 0 0 0-13-4.5c-11.9 0-22.4 8.7-22.4 21.7s10.1 21.7 22.4 21.7c4.7 0 9.2-1.6 12.8-4.3v2.7c0 7.4-4.3 12.1-12.3 12.1-6.5 0-11-3.6-13.7-6.3-.4-.4-1.3-.4-1.8 0l-3.8 4.5c-.5.4-.5 1.1-.1 1.7m-179.8-32c0 7.4-5.6 13.2-12.8 13.2-7.4 0-12.6-6.3-12.6-13.2V39c0-7 5.2-12.8 12.6-12.8 7.2-.2 12.8 5.9 12.8 13.3M0 39.5c0 11.9 9.6 21.7 22.4 21.7 13 0 22.4-9.9 22.4-21.7V39c0-11.9-9.6-21.3-22.4-21.3A21.6 21.6 0 0 0 0 39.5m197.5 0c0 7.4-5.6 13.2-12.8 13.2s-12.6-6.3-12.6-13.2V39c0-7 5.2-12.8 12.6-12.8 7.4-.2 12.8 5.9 12.8 13.3m-35.4 0c0 11.9 9.6 21.7 22.4 21.7s22.4-9.9 22.4-21.7V39c0-11.9-9.6-21.3-22.4-21.3a21.6 21.6 0 0 0-22.4 21.8m102.7 19.7c0 .4.2 1.1.9 1.1h7.2c.4 0 1.1-.2 1.1-.9V19.7c0-.4-.2-.9-.9-.9h-7.4c-.7 0-.9.4-.9.9zm0-50.9c0 .4.2 1.1.9 1.1h7.2c.4 0 1.1-.2 1.1-.9V.9c0-.4-.2-.9-.9-.9h-7.4c-.7 0-.9.4-.9.9zm49.8 50.9c0 .4.2 1.1.9 1.1h7.2c.4 0 1.1-.2 1.1-.9V35.9c0-9.9-5.8-18.2-18.4-18.2h-.2a20 20 0 0 0-13.5 4.5V20c0-.7-.4-1.1-.9-1.1h-7c-.4 0-1.1.2-1.1.9v39.7c0 .4.2 1.1.9 1.1h7.2c.4 0 1.1-.2 1.1-.9V37.5c0-6.7 3.6-11.9 11.7-11.9s11.2 4.9 11.2 11.9zm-67.5-19.7c0 7.4-5.6 13.2-12.8 13.2-7.4 0-12.6-6.3-12.6-13.2V39c0-7 5.2-12.8 12.6-12.8 7.2-.2 12.8 5.9 12.8 13.3" key="t1b8txm"/><path fill="#40535d" d="M133 87.2h1.7v6.3c.9-1.3 2.4-2 3.9-2 3 0 5.2 2.4 5.2 6.1s-2.2 6.1-5.2 6.1a5 5 0 0 1-3.9-2v1.7H133zm5.2 14.7c2.4 0 3.7-2 3.7-4.6s-1.3-4.6-3.7-4.6c-1.5 0-2.8.9-3.5 2v5.2c.7 1.2 2.2 2 3.5 2M147.6 106.3c.9 0 1.3-.2 1.7-1.3l.9-1.7-4.8-11.7h2l3.9 9.5 3.9-9.5h2l-5.9 14.1c-.7 1.7-2 2.4-3.5 2.4-.4 0-1.1 0-1.3-.2l.2-1.7z" key="cd11h4e"/><path fill="#04aada" d="M187.2 87.4c0-.2.2-.4.4-.4h.3l.6.3 8.7 8.4v-8c0-.2.2-.4.4-.4h2.7c.2 0 .4.2.4.4v15.2c0 .3-.2.4-.4.4h-.2l-.6-.2-8.8-8.9v8.4c0 .2-.2.4-.4.4h-2.7a.4.4 0 0 1-.4-.4zM203.6 87.6c0-.2.2-.4.4-.4h9.4c.2 0 .4.2.4.4v2.5c0 .2-.2.4-.4.4h-6.3v2.8h5.2c.2 0 .4.2.4.4v2.5c0 .2-.2.4-.4.4h-5.2v3.1h6.3c.2 0 .4.2.4.4v2.5c0 .2-.2.4-.4.4H204a.4.4 0 0 1-.4-.4z" key="oajssnw"/><path fill="#40535d" d="M225.1 87.6c0-.2.2-.4.4-.4h2.7c.2 0 .4.2.4.4v15c0 .2-.2.4-.4.4h-2.7a.4.4 0 0 1-.4-.4zM231.5 87.6c0-.2.2-.4.4-.4h5.5a8 8 0 0 1 0 15.8h-5.5a.4.4 0 0 1-.4-.4zm5.9 12.1c2.6 0 4.2-2 4.2-4.6s-1.7-4.6-4.2-4.6H235v9.2zM247.8 87.6c0-.2.2-.4.4-.4h9.4c.2 0 .4.2.4.4v2.5c0 .2-.2.4-.4.4h-6.3v2.8h5.2c.2 0 .4.2.4.4v2.5c0 .2-.2.4-.4.4h-5.2v3.1h6.3c.2 0 .4.2.4.4v2.5c0 .2-.2.4-.4.4h-9.4a.4.4 0 0 1-.4-.4zM260.5 87.3c0-.2.2-.4.4-.4h.3l.6.3 8.7 8.4v-8c0-.2.2-.4.4-.4h2.7c.2 0 .4.2.4.4v15.2c0 .3-.2.4-.4.4h-.2l-.6-.2-8.8-8.9v8.4c0 .2-.2.4-.4.4h-2.7a.4.4 0 0 1-.4-.4zM280.7 90.5h-3.2a.4.4 0 0 1-.4-.4v-2.5c0-.2.2-.4.4-.4h10.1c.2 0 .4.2.4.4v2.5c0 .2-.2.4-.4.4h-3.2v12.1c0 .2-.2.4-.4.4h-2.7a.4.4 0 0 1-.4-.4V90.5M290.9 87.6c0-.2.2-.4.4-.4h2.7c.2 0 .4.2.4.4v15c0 .2-.2.4-.4.4h-2.7a.4.4 0 0 1-.4-.4zM301 90.5h-3.2a.4.4 0 0 1-.4-.4v-2.5c0-.2.2-.4.4-.4h10.1c.2 0 .4.2.4.4v2.5c0 .2-.2.4-.4.4h-3.2v12.1c0 .2-.2.4-.4.4h-2.7a.4.4 0 0 1-.4-.4V90.5M315.2 95.4l-5-7.6c-.2-.3 0-.7.4-.7h2.9l.4.2 3.1 4.6 3.1-4.6.4-.2h2.9c.4 0 .5.4.4.7l-5.1 7.5v7.2c0 .2-.2.4-.4.4h-2.7a.4.4 0 0 1-.4-.4z" key="rr361l4"/><path fill="#04aada" d="M176.1 83.3c4 0 7.8 2.2 9.8 5.7l-1.2.7a9.8 9.8 0 0 0-8.6-4.9z" key="8ja7fjb"/><path fill="#04aada" d="M183.1 106.9a14.2 14.2 0 0 1-21.2-12.2 14.2 14.2 0 0 1 21.2-12.2l-.7 1.2a12.6 12.6 0 0 0-12.7 0 12.7 12.7 0 0 0 0 22c3.9 2.3 8.8 2.3 12.7 0z" key="mpn71jq"/><path fill="#04aada" d="M176.1 86.2a8.5 8.5 0 1 1 0 17 8.5 8.5 0 0 1 0-17m-5 8.5a5 5 0 1 0 9.8 0 5 5 0 0 0-9.8 0" key="3bpk3au"/><path fill="#04aada" d="M184.6 99.6a10 10 0 0 1-17.2 0 9.8 9.8 0 0 1 0-9.9l-1.2-.7a11.4 11.4 0 0 0 9.8 17c4 0 7.8-2.2 9.8-5.7z" key="pv23r7r"/></svg>