<svg xmlns="http://www.w3.org/2000/svg" fill="none" viewBox="0 0 44 16" key="5ga7us4"><path fill="#fff" d="M36.015 16h-3.422l4.015-7.992L32.593 0h3.422l2.289 4.602L40.654 0H44z" key="4nd4oha"/><path fill="#fff" fill-rule="evenodd" d="M25.803 9.722c2.06-.572 3.578-2.476 3.593-4.732v-.076C29.373 2.194 27.184 0 24.49 0h-6.416v2.88l2.415 3.97h-2.407V16H21.1V9.897h1.268L26.079 16h3.55zm-1.751-2.865h.445a1.897 1.897 0 0 0 1.887-1.905 1.897 1.897 0 0 0-1.887-1.904H21.72zM8 0C3.581 0 0 3.581 0 8a8 8 0 0 0 8 8c4.42 0 8-3.581 8-8s-3.58-8-8-8M3.048 8a4.952 4.952 0 1 0 9.904 0 4.952 4.952 0 0 0-9.904 0" clip-rule="evenodd" key="pvgco5a"/></svg>