<svg xmlns="http://www.w3.org/2000/svg" xmlns:xlink="http://www.w3.org/1999/xlink" viewBox="25 25 300 300" key="vd68uzo"><circle cx="175" cy="175" r="143.7" fill="#f6a" key="121cmie"/><g opacity=".15" key="263b48p"><defs key="vt1fx5l"><circle id="a" cx="175" cy="175" r="150" opacity=".15" key="trplssq"/></defs><clipPath id="b" key="mg96zht"><use xlink:href="#a" overflow="visible" key="e82mcd7"/></clipPath><g clip-path="url(#b)" key="o5ubqiy"><path fill="#f1f1f2" d="M-81.2 336.9 175-106.9l256.2 443.8z" key="eiseb2y"/><path fill="#231f20" d="M68.8 443.7 325 0l256.2 443.7z" key="63kkj95"/><path fill="#808184" d="m-409.8 363.4 256.2-443.7 256.2 443.7z" key="0r9lbac"/><path fill="#929497" d="m61.4 158.2 256.2-443.8 256.2 443.8z" key="jey9ltf"/><path fill="#636466" d="M-222.4 380 33.8-63.7 290 380z" key="hyxv1f8"/><path fill="#59595c" d="m-100.1 646.9 256.2-443.8 256.2 443.8z" key="4pereba"/><path fill="#a7a8ab" d="m-164.9 147.2 97.3-168.5 97.3 168.5zm81.5 376.6 97.3-168.5 97.3 168.5z" key="e0q3f26"/><path fill="#6d6e70" d="m134.3 220.8 97.3-168.5 97.3 168.5z" key="epd07r9"/><path fill="#a7a8ab" d="M298.7 485.7 396 317.2l97.2 168.5z" key="niwy3ep"/><path fill="#59595c" d="m108.4 621.4 48.6-84.2 48.7 84.2z" key="6edwc6x"/><path fill="#221f1f" d="m278.7 305.9 48.6-84.2 48.6 84.2zM46.2 400l97.3-168.5L240.8 400z" key="up8d0g0"/><path fill="#808184" d="M108.8-86.6 36.5 38.6h194.6L158.8-86.6zm213.2 0-23.6 40.9h97.3L372-86.6z" key="qixh3uq"/><path fill="#404041" d="M35.3 332.5 132.6 164l97.3 168.5z" key="n5cdo9w"/><path fill="#808184" d="m236.1 369.2 97.2-168.5 97.3 168.5z" key="htselnt"/><path fill="#59595c" d="m-51.9 428.8 48.1-83.3 48.1 83.3z" key="vqtixtl"/><path fill="#58595b" d="m123.2 104.8 48.1-83.3 48.1 83.3z" key="9r8b6a5"/><path fill="#221f1f" d="m283 90.2 48.1-83.3 48.1 83.3z" key="ig6d9zk"/><path fill="#808184" d="m-61.9 331.6 24.1-41.7 24 41.7z" key="u1avl2s"/><path fill="#59595c" d="m132.5 621.6 24-41.7 24.1 41.7zm84.2-156 24-41.7 24 41.7z" key="c7feboa"/><path fill="#404041" d="m197.1 259.7 48.1-83.3 48.1 83.3z" key="9pjchev"/><path fill="#f1f1f2" d="m283 239.3 48.1-83.3 48.1 83.3z" key="iwu343m"/><path fill="#a7a8ab" d="M-49.5 78.8-1.4-4.5l48.1 83.3zm-48.4 146.6 48.1-83.3 48.1 83.3z" key="or7wm05"/><path fill="#808184" d="m288.2-20 24-41.6L336.3-20z" key="ygrltei"/><path fill="#bbbdbf" d="m187.2 116.2 24.1-41.6 24 41.6z" key="0n5swmx"/><path fill="#fff" d="m231.9 63.8 6.4-11 6.4 11z" key="pyqr74d"/><path fill="#6d6e70" d="M28.9 117.8 77 34.5l48.1 83.3z" key="8n12qpx"/><path fill="#a6a8ab" d="m110.8 331.9 48.1-83.3 48.1 83.3z" key="mt4gow3"/><path fill="#231f20" d="m107 263.1 18.1-31.4 18 31.4z" key="4l6jlmn"/><path fill="#a7a8ab" d="m214 285.3 24-41.7 24.1 41.7zm-5.4-118.1 24-41.6 24.1 41.6z" key="jl1w7b9"/><path fill="#f1f1f2" d="m226 102.8 48.1-83.3 48 83.3z" key="2y46gn0"/><path fill="#a6a8ab" d="m1.2 143.6 48.1-83.3 48.1 83.3z" key="4yo4ij9"/><path fill="#59595c" d="m14 272.2 18.3-31.8 18.3 31.8z" key="dss98c0"/><path fill="#a6a8ab" d="m265.4 230.6 18.3-31.8 18.3 31.8z" key="qlrk6um"/><path fill="#fff" d="M156.7 84.8 175 53.1l18.3 31.7z" key="soy7i9v"/><path fill="#58595b" d="m156.7 282.1 18.3-31.8 18.3 31.8z" key="y7rt7vj"/><path fill="#59595c" d="m-19.7 88 18.3-31.8L17 88zm258.1 272.2 18.3-31.7 18.3 31.7z" key="4w9jvi5"/><path fill="#808184" d="m307.5 135.6 18.3-31.8 18.3 31.8z" key="a5qw558"/><path fill="#bbbdbf" d="m45.3 233.1 18.3-31.8L82 233.1z" key="5198szq"/><path fill="#f1f1f2" d="m72.3 295.1 18.3-31.8 18.4 31.8zM27.6 167.7 46 136l18.3 31.7z" key="4plurzt"/><path fill="#59595c" d="m113.7 123.7 9.1-15.8 9.2 15.8z" key="aqde8cs"/><path fill="#bbbdbf" d="m50.8 152.9 9.1-15.8 9.2 15.8z" key="kztm79f"/><path fill="#e6e7e8" d="m107.7 84.4 9.2-15.9 9.2 15.9z" key="c97s8z9"/><path fill="#221f1f" d="m69 360.2 18.3-31.7 18.3 31.7z" key="hi4o0yu"/><path fill="#59595c" d="m112.2 419.2 18.3-31.8 18.3 31.8zm404.5-131.1 18.4-31.8 18.3 31.8z" key="q8v2uig"/><path fill="#808184" d="M187.7 61.9 206 30.1l18.4 31.8z" key="wxa2zqj"/><path fill="#fff" d="m283.4 128.2 18.3-31.7 18.3 31.7z" key="75boey3"/><path fill="#59595c" d="m316.6 622.1 9.2-15.9 9.2 15.9z" key="6fu82t6"/><path fill="#a7a8ab" d="m262.4 411.2 9.2-15.8 9.1 15.8z" key="d5dnsyc"/><path fill="#59595c" d="m577.5 394.4 9.2-15.9 9.2 15.9z" key="04cf1em"/><path fill="#808184" d="m-97.4 339.9 18.3-31.7 18.4 31.7zm375.1-24.4 18.4-31.8 18.3 31.8z" key="qqo6jis"/><path fill="#a7a8ab" d="m286.9 268.6 9.2-15.9 9.1 15.9z" key="fra66af"/><path fill="#d0d2d3" d="m210.1 128.5 10.9-18.9 10.9 18.9z" key="n7i1rl2"/><path fill="#808184" d="M94.9-41.1 104-57l9.2 15.9z" key="6sq1ne8"/><path fill="#59595c" d="M386.7 121.9 405 90.2l18.4 31.7zM463 336.8l9.2-15.9 9.2 15.9z" key="1lw5jps"/></g></g><path fill="#fff" d="M100.1 206.4c-4.7 0-8.8-.8-12.3-2.3s-6.4-3.7-8.6-6.4c-2.3-2.7-4-5.9-5.2-9.6s-1.7-7.6-1.7-11.9.6-8.3 1.7-12c1.2-3.7 2.9-7 5.2-9.7s5.2-4.9 8.6-6.5q5.25-2.4 12.3-2.4c7.05 0 8.8.8 12.3 2.4s6.4 3.7 8.8 6.5c2.3 2.7 4 6 5.2 9.7 1.1 3.7 1.7 7.7 1.7 12s-.6 8.2-1.7 11.9-2.8 6.9-5.2 9.6c-2.3 2.7-5.2 4.9-8.8 6.4-3.4 1.6-7.6 2.3-12.3 2.3m0-12.1c4.2 0 7.2-1.6 9-4.7s2.7-7.6 2.7-13.4-.9-10.3-2.7-13.4-4.8-4.7-9-4.7c-4.1 0-7.1 1.6-8.9 4.7s-2.8 7.6-2.8 13.4.9 10.3 2.8 13.4c1.8 3.2 4.8 4.7 8.9 4.7m51.8-14.5c-4.2-1.2-7.5-3-9.8-5.3-2.4-2.4-3.5-5.9-3.5-10.6 0-5.7 2-10.1 6.1-13.4 4.1-3.2 9.6-4.8 16.7-4.8a49.1 49.1 0 0 1 17.2 3.2c-.2 1.9-.5 4-1.1 6.1s-1.3 3.9-2.1 5.5c-1.8-.7-3.8-1.4-5.9-2-2.2-.6-4.5-.8-6.8-.8-2.5 0-4.5.4-5.9 1.2s-2.1 2-2.1 3.8c0 1.6.5 2.8 1.5 3.5s2.4 1.3 4.3 1.9l6.4 1.9c2.1.6 4 1.3 5.7 2.2s3.1 1.9 4.3 3.2 2.1 2.8 2.8 4.7 1 4.2 1 6.8c0 2.8-.6 5.3-1.7 7.7a17.6 17.6 0 0 1-5 6.2c-2.2 1.8-4.9 3.1-8 4.2a35 35 0 0 1-10.7 1.5c-1.8 0-3.4-.1-4.9-.2s-2.9-.3-4.3-.6-2.7-.6-4.1-1c-1.3-.4-2.8-.9-4.4-1.5.1-2 .5-4.1 1.1-6.1.6-2.1 1.3-4.1 2.2-6 2.5 1 4.8 1.7 7 2.2s4.5.7 6.9.7c1 0 2.2-.1 3.4-.3s2.4-.5 3.4-1 1.9-1.1 2.6-1.9 1.1-1.8 1.1-3.1c0-1.8-.5-3.1-1.6-3.9q-1.65-1.2-4.5-2.1zm39.3-32.7c2.7-.4 5.3-.7 8-.7 2.6 0 5.3.2 8 .7v30.7c0 3.1.2 5.6.7 7.6s1.2 3.6 2.2 4.7c1 1.2 2.3 2 3.8 2.5s3.3.7 5.3.7c2.8 0 5.1-.3 7-.8v-45.4c2.7-.4 5.3-.7 7.9-.7s5.3.2 8 .7v55.8c-2.4.8-5.6 1.6-9.5 2.4a65.3 65.3 0 0 1-23.3.3c-3.5-.6-6.6-1.9-9.3-3.8s-4.8-4.8-6.3-8.5c-1.6-3.7-2.4-8.7-2.4-14.9v-31.3zm65.9 58c-.4-2.8-.7-5.5-.7-8.2s.2-5.5.7-8.3c2.8-.4 5.5-.7 8.2-.7s5.5.2 8.3.7c.4 2.8.7 5.6.7 8.2 0 2.8-.2 5.5-.7 8.3-2.8.4-5.6.7-8.2.7-2.8-.1-5.5-.3-8.3-.7m-.4-80.7c2.9-.4 5.8-.7 8.6-.7 2.9 0 5.8.2 8.8.7l-1.1 54.9c-2.6.4-5.1.7-7.5.7-2.5 0-5.1-.2-7.6-.7z" key="s77p5nv"/><path fill="#fff" d="M175 25C92.2 25 25 92.2 25 175s67.2 150 150 150 150-67.2 150-150S257.8 25 175 25m0 285c-74.6 0-135-60.4-135-135S100.4 40 175 40s135 60.4 135 135-60.4 135-135 135" key="nlamim4"/></svg>