<svg xmlns="http://www.w3.org/2000/svg" xmlns:xlink="http://www.w3.org/1999/xlink" xml:space="preserve" viewBox="33.27 30.98 878.32 191.64" key="9causqq"><g transform="translate(-77.63 -55.768)scale(1.4291)" key="ljwvcns"><defs key="7tmcfrd"><path id="a" d="M0 0h755.8v253.2H0z" key="mu54yj0"/></defs><clipPath id="b" key="kwcaipt"><use xlink:href="#a" width="100%" height="100%" key="lmwloo4"/></clipPath><g fill="#203232" key="p444x4p"><path d="M128.3 87.8c-11.9 0-18.8 5.4-22.1 9-.4-3.2-2.5-7.3-10.7-7.3H77.6v18.6h7.3c1.2 0 1.6.4 1.6 1.6v85.1h21.2v-34.2c3.3 3 9.6 7.2 19.5 7.2 20.7 0 35.2-16.4 35.2-40 .1-23.9-13.7-40-34.1-40m-4.3 61.5c-11.4 0-16.6-10.9-16.6-21.1 0-16 8.7-21.7 16.9-21.7 10 0 16.8 8.6 16.8 21.5-.1 14.8-8.7 21.3-17.1 21.3" clip-path="url(#b)" key="ud27r8d"/><path d="M191 146v-45.1c0-7.6-3.7-11.3-11.2-11.3h-19v18.6h7.3c1.2 0 1.6.4 1.6 1.6v44.9c0 7.7 3.6 11.3 11.2 11.3h19v-18.5h-7.3c-1.1.1-1.6-.4-1.6-1.5" clip-path="url(#b)" key="nv5zmlq"/><path d="M246.4 87.8c-11.9 0-18.8 5.4-22.2 9-.4-3.2-2.5-7.3-10.7-7.3h-17.8v18.6h7.3c1.2 0 1.6.4 1.6 1.6v85.1H226v-34.2c3.3 3 9.7 7.2 19.5 7.2 20.7 0 35.2-16.4 35.2-40 0-23.9-13.8-40-34.3-40m-4.3 61.5c-11.4 0-16.6-10.9-16.6-21.1 0-16 8.7-21.7 16.9-21.7 10 0 16.8 8.6 16.8 21.5 0 14.8-8.6 21.3-17.1 21.3m78.5-61.5c-22.9 0-38.8 16.5-38.8 40 0 23.2 17.2 40 41 40 18.7 0 30.1-11.1 30.6-11.5l.9-.8-9.2-15.3-1.4 1.3c-.1.1-8.5 7.8-19.6 7.8-10.6 0-18.4-6.5-20.3-16.7h50.3l.1-1.4c0-.2.5-4.7.5-6.9 0-21.8-13.7-36.5-34.1-36.5m-16 29c2.3-7.5 8.1-11.8 16-11.8 6.4 0 11.3 4.9 12.2 11.8zM431.9 146V72.1c0-7.6-3.7-11.3-11.3-11.3h-19v18.6h7.3c1.2 0 1.6.4 1.6 1.6v13.4c-3.1-2.8-9.2-6.5-19.8-6.5-20.6 0-35 16.5-35 40 0 23.9 13.8 40 34.2 40 11.7 0 18.5-5.4 21.8-9.2.4 3.3 2.6 7.5 10.5 7.5h18.4v-18.5h-7.1c-1.2-.1-1.6-.6-1.6-1.7m-37.9 3.3c-10.1 0-16.6-8.4-16.6-21.5 0-12.7 6.8-21.2 16.9-21.2 11.5 0 16.6 10.6 16.6 21.1 0 16-8.7 21.6-16.9 21.6m93.9-60.8c-8.8 0-17 5.1-21.8 13.2V100c0-6.9-3.8-10.5-11.3-10.5h-18.2v18.6h7.3c1.2 0 1.6.4 1.6 1.6V166h21.2v-30.6c0-4 .5-7.9 1.5-11.5 3.2-10.6 11.7-14.3 18.5-14.3 2.4 0 4.2.3 4.2.3l1.8.3V89.1l-1.3-.2c0-.1-1.8-.4-3.5-.4m35 57.5v-45.1c0-7.6-3.7-11.3-11.2-11.3h-17.2v18.6h5.5c1.2 0 1.6.4 1.6 1.6v44.9c0 7.7 3.6 11.3 11.2 11.3h19v-18.5h-7.3c-1.1.1-1.6-.4-1.6-1.5" clip-path="url(#b)" key="d535cpb"/><path d="M603 89.6h-11.3c-6.6 0-10.2 2.3-12.3 7.9l-13.8 38.6c-.5 1.4-.9 3-1.3 4.6-.4-1.5-.9-3.2-1.4-4.6l-13.8-38.6c-2.1-5.7-5.5-7.9-12.3-7.9h-12v18.6h3.1c1.7 0 2.2.6 2.6 1.6l21.4 56.3h23.9l21.4-56.3c.4-1 .9-1.6 2.6-1.6h3.3V89.6zm36.6-1.8c-22.9 0-38.8 16.5-38.8 40 0 23.2 17.2 40 41 40 18.7 0 30.1-11.1 30.6-11.5l.9-.8-9.2-15.3-1.4 1.3c-.1.1-8.5 7.8-19.5 7.8-10.6 0-18.4-6.5-20.3-16.7h50.3l.1-1.4c0-.2.4-4.7.4-6.9 0-21.8-13.7-36.5-34.1-36.5m-16 29c2.3-7.5 8.1-11.8 16-11.8 6.4 0 11.3 4.9 12.2 11.8zm-453-56.1h18.9v19.9h-18.9zm332 0h18.9v19.9h-18.9zm170.7 28.9h2.8v7.6h2.1v-7.6h2.8v-1.8h-7.7zm16-1.8-2.1 6.5-2.2-6.5h-2.9v9.4h1.9v-6.6h.1l2.3 6.6h1.6l2.3-6.6v6.6h1.9v-9.4z" clip-path="url(#b)" key="80d7b0t"/></g></g></svg>