<svg xmlns="http://www.w3.org/2000/svg" version="1.0" viewBox="0 0 400 400" key="6fin1dq"><g fill="#fff" key="sfo023h"><path d="M0 200v200h400V0H0zM226.9 93.1c25.4 4.1 45.5 18.8 55 40.2 8.7 19.6 7 45.7-4.1 64.5-4.5 7.6-16.1 19.2-23 23.2-3.2 1.7-5.8 3.7-5.8 4.2 0 .6 7.1 13.3 15.7 28.2s18.5 31.9 21.9 37.7c3.3 5.9 6.8 11.7 7.8 13 .9 1.3 1.6 2.7 1.6 3.1 0 .5-13.4.7-29.7.6l-29.7-.3-3.1-5.5c-1.8-3-11.4-20-21.4-37.8L193.8 232H167v76h-50V92h51.8c31.2 0 54.3.4 58.1 1.1" key="dn4fsl0"/><path d="M167 163.9V192h23.3c26.9 0 31.1-.8 37.2-6.7 6-5.8 8-11.2 8-21.8 0-8-.3-9.5-2.8-13.7-2.8-4.8-6.4-8.1-12.7-11.4-3.1-1.7-6.4-1.9-28.2-2.2l-24.8-.4z" key="07txkws"/></g></svg>