<svg xmlns="http://www.w3.org/2000/svg" viewBox="0 0 64 64" key="zr3fko6"><path fill="#2f406a" d="M51.73 20.41V43.5L32.14 54.97l-.18.17v8.7l.18.16 27.59-15.94V15.93h-.27l-7.77 4.35v.18" key="jqn61k8"/><path fill="#2379bd" d="m12.48 43.65 19.7 11.4V64L4.35 48V16h.28l7.76 4.51.08.27v22.97" key="uwdfx4x"/><path fill="#03afef" d="M12.48 20.73 4.28 16l27.8-16 27.65 15.93-8 4.48-19.69-11.2-19.6 11.48" key="9xr3jtw"/><path fill="#2f406a" d="m31.8 41.01-.22-.21v-8.65l.22-.12v-.2l7.41-4.34h.23v8.93l-7.7 4.56" key="3xs053i"/><path fill="#2379bd" d="M23.97 36.74v-9.27h.21l7.55 4.4v9.15l-7.83-4.28" key="yaxl2h4"/><path fill="#03afef" d="m31.66 22.93-7.7 4.56L31.8 32l7.7-4.5-7.84-4.62" key="u7qhthq"/><path fill="#2f406a" d="m22.21 46.67-.21-.21v-8.67l.21-.11v-.22l7.42-4.33h.23v8.93l-7.7 4.56" key="hp8q57j"/><path fill="#2379bd" d="M14.38 42.39v-9.27h.22l7.55 4.4v9.15l-7.76-4.28" key="2enttkr"/><path fill="#03afef" d="m22.1 28.57-7.72 4.55 7.83 4.56 7.7-4.5-7.83-4.63" key="2k0t7li"/><path fill="#2f406a" d="m42.07 46.88-.22-.2V38l.22-.12v-.21l7.41-4.33h.24v8.92l-7.7 4.56" key="0hwtkz3"/><path fill="#2379bd" d="M34.24 42.6v-9.27h.25l7.55 4.4v9.15L34.2 42.6" key="975u4rd"/><path fill="#03afef" d="m41.94 28.72-7.7 4.56 7.83 4.56 7.7-4.5z" key="28c73dn"/><path fill="#2f406a" d="m32.48 52.53-.2-.21v-8.67l.2-.11v-.22L39.9 39h.23v8.93l-7.7 4.56" key="ccwuk71"/><path fill="#2379bd" d="M24.64 48.25v-9.26h.21l7.55 4.4v9.16z" key="rt9pb2i"/><path fill="#03afef" d="m32.35 34.43-7.71 4.56 7.84 4.5 7.7-4.5z" key="csu20il"/><path fill="#2f406a" d="m31.8 28.72-.22-.21v-8.64l.22-.11v-.22l7.41-4.33h.23v8.93z" key="vrtdg9z"/><path fill="#2379bd" d="M23.97 24.47V15.2h.21l7.55 4.4v9.12l-7.83-4.28" key="1mijo6u"/><path fill="#03afef" d="m31.66 10.67-7.7 4.56 7.84 4.56 7.7-4.5z" key="wzdyfsz"/><path fill="#2f406a" d="m22.21 34.38-.21-.21v-8.73l.21-.12v-.21l7.42-4.33h.23v8.92l-7.7 4.57" key="wsp8vcv"/><path fill="#2379bd" d="M14.38 30.11v-9.27h.22l7.55 4.4v9.16l-7.76-4.29" key="jxb6824"/><path fill="#03afef" d="m22.1 16.3-7.72 4.54 7.83 4.6 7.7-4.5-7.83-4.63" key="52ler5m"/><path fill="#2f406a" d="m42.07 34.6-.22-.22v-8.65l.22-.11v-.22l7.41-4.33h.24V30l-7.7 4.56" key="z82zuwz"/><path fill="#2379bd" d="M34.24 30.36v-9.3h.25L42 25.44v9.15z" key="fzwuyr2"/><path fill="#03afef" d="m41.94 16.51-7.7 4.56 7.83 4.56 7.7-4.5z" key="2sqvdsa"/><path fill="#2f406a" d="m32.48 40.2-.2-.2v-8.62l.2-.12v-.21l7.42-4.33h.23v8.92l-7.65 4.57" key="tm7rgem"/><path fill="#2379bd" d="M24.64 35.97V26.7h.21l7.55 4.4v9.1z" key="pbfcqzo"/><path fill="#03afef" d="m32.35 22.15-7.71 4.55 7.83 4.56 7.7-4.5-7.82-4.6" key="bcaj1zc"/></svg>