<svg xmlns="http://www.w3.org/2000/svg" viewBox="0 0 144.8 144.8" key="0xb64b7"><circle cx="72.4" cy="72.4" r="72.4" fill="#FFF" key="s4s8sod"/><path fill="#ED2224" d="M29.5 111.8c10.6 11.6 25.9 18.8 42.9 18.8 8.7 0 16.9-1.9 24.3-5.3L56.3 85z" key="jd1u5kr"/><path fill="#ED2224" d="M56.1 60.6 25.5 91.1 21.4 87l32.2-32.2 37.6-37.6c-5.9-2-12.2-3.1-18.8-3.1-32.2 0-58.3 26.1-58.3 58.3 0 13.1 4.3 25.2 11.7 35l30.5-30.5 2.1 2 43.7 43.7c.9-.5 1.7-1 2.5-1.6L56.3 72.7 27 102l-4.1-4.1 33.4-33.4 2.1 2 51 50.9c.8-.6 1.5-1.3 2.2-1.9l-55-55z" key="low1f51"/><path fill="#ED1C24" d="M115.7 111.4c9.3-10.3 15-24 15-39 0-23.4-13.8-43.5-33.6-52.8L60.4 56.2zM74.5 66.8l-4.1-4.1 28.9-28.9 4.1 4.1zm27.4-39.7L68.6 60.4l-4.1-4.1L97.8 23z" key="82iwpag"/><path fill="#ED2224" d="M72.4 144.8C32.5 144.8 0 112.3 0 72.4S32.5 0 72.4 0s72.4 32.5 72.4 72.4-32.5 72.4-72.4 72.4m0-137.5C36.5 7.3 7.3 36.5 7.3 72.4s29.2 65.1 65.1 65.1 65.1-29.2 65.1-65.1S108.3 7.3 72.4 7.3" key="lq7tfms"/></svg>