<svg xmlns="http://www.w3.org/2000/svg" style="isolation:isolate" viewBox="0 0 64 64" key="ah3mbvp"><defs key="yxjnxy4"><clipPath id="a" key="wxsw6ui"><path d="M0 0h64v64H0z" key="x22x64k"/></clipPath></defs><g clip-path="url(#a)" key="ev4d30b"><path fill="#00E9A3" d="M11.345 52.655c9.126 9.127 23.922 9.127 33.048 0 9.126-9.126 9.126-23.922 0-33.048l-4.131 4.131c6.845 6.844 6.845 17.942 0 24.786s-17.942 6.845-24.786 0z" key="ox1t30y"/><path fill="#00E9A3" d="M19.607 44.393c4.563 4.563 11.961 4.563 16.524 0s4.563-11.961 0-16.524L32 32a5.84 5.84 0 0 1 0 8.262 5.84 5.84 0 0 1-8.262 0z" key="ehgpzlu"/><path fill="#00E9A3" d="M52.655 11.345c-9.126-9.127-23.922-9.127-33.048 0-9.126 9.126-9.126 23.922 0 33.048l4.131-4.131c-6.845-6.844-6.845-17.942 0-24.786s17.942-6.845 24.786 0z" key="wqaoljx"/><path fill="#00E9A3" d="M44.393 19.607c-4.563-4.563-11.961-4.563-16.524 0s-4.563 11.961 0 16.524L32 32a5.84 5.84 0 0 1 0-8.262 5.84 5.84 0 0 1 8.262 0z" key="2ob5i1k"/><path fill="#FFF" fill-opacity=".8" d="M52.655 11.345c-9.126-9.127-23.922-9.127-33.048 0-9.126 9.126-9.126 23.922 0 33.048l4.131-4.131c-6.845-6.844-6.845-17.942 0-24.786s17.942-6.845 24.786 0z" key="2uj9v6t"/><path fill="#FFF" fill-opacity=".8" d="M44.393 19.607c-4.563-4.563-11.961-4.563-16.524 0s-4.563 11.961 0 16.524L32 32a5.84 5.84 0 0 1 0-8.262 5.84 5.84 0 0 1 8.262 0z" key="1l8agq2"/></g></svg>