<svg xmlns="http://www.w3.org/2000/svg" fill="none" viewBox="0 0 116 50" key="arhejqr"><g clip-path="url(#a)" key="m6s09wt"><g clip-path="url(#b)" key="9fn8zfl"><mask id="c" width="50" height="50" x="0" y="0" maskUnits="userSpaceOnUse" style="mask-type:luminance" key="9bgi2kj"><path fill="#fff" d="M50 0H0v50h50z" key="ry25qqg"/></mask><g mask="url(#c)" key="qtthlzk"><mask id="d" width="50" height="50" x="0" y="0" maskUnits="userSpaceOnUse" style="mask-type:luminance" key="5yryt56"><path fill="#fff" d="M50 0H0v50h50z" key="vhskr9o"/></mask><g mask="url(#d)" key="68hux7g"><path fill="#FF5B24" fill-rule="evenodd" d="M49.999 15.837q.001-.912-.004-1.813a75 75 0 0 0-.022-1.53 22.5 22.5 0 0 0-.292-3.326c-.189-1.1-.54-2.166-1.042-3.162a10.65 10.65 0 0 0-4.649-4.644A11.1 11.1 0 0 0 40.83.318a23 23 0 0 0-3.326-.294 61 61 0 0 0-1.527-.018Q35.069-.001 34.164 0H15.835q-.908-.001-1.812.006-.765 0-1.529.018a23 23 0 0 0-3.326.294c-1.1.188-2.165.54-3.16 1.044-2 1.02-3.626 2.646-4.648 4.644A11.2 11.2 0 0 0 .318 9.168q-.27 1.651-.292 3.325c-.013.513-.02 1.019-.022 1.531q-.005.902-.004 1.813V34.16q-.001.912.004 1.813.001.767.022 1.53a22 22 0 0 0 .292 3.326c.189 1.1.54 2.166 1.042 3.163a10.67 10.67 0 0 0 4.648 4.644c.995.505 2.06.856 3.16 1.044q1.651.273 3.326.293.764.019 1.529.02a189 189 0 0 0 1.812.005h18.328q.908.002 1.813-.006.766 0 1.528-.02a22 22 0 0 0 3.326-.292 11.2 11.2 0 0 0 3.16-1.044 10.66 10.66 0 0 0 4.648-4.644c.503-.997.853-2.062 1.042-3.163q.27-1.652.293-3.325c.013-.512.02-1.019.022-1.531q.005-.9.005-1.813z" clip-rule="evenodd" key="lo84cz6"/></g><path fill="#fff" d="M25.76 31.797c4.376 0 6.86-2.129 9.226-5.204 1.301-1.657 2.957-2.01 4.14-1.065 1.183.947 1.3 2.721 0 4.376-3.43 4.495-7.806 7.216-13.366 7.216-6.032 0-11.355-3.312-15.022-9.108-1.064-1.537-.828-3.194.355-4.022s2.957-.473 4.021 1.184c2.603 3.902 6.15 6.623 10.646 6.623m8.161-14.548c0 2.129-1.656 3.548-3.549 3.548-1.892 0-3.549-1.42-3.549-3.548s1.657-3.549 3.55-3.549 3.548 1.537 3.548 3.549" key="eui0o3l"/></g></g><g clip-path="url(#e)" key="7ozpuag"><mask id="f" width="50" height="50" x="66" y="0" maskUnits="userSpaceOnUse" style="mask-type:luminance" key="aegps6r"><path fill="#fff" d="M116 0H66v50h50z" key="k4jxhky"/></mask><g mask="url(#f)" key="m485jdw"><mask id="g" width="50" height="51" x="66" y="-1" maskUnits="userSpaceOnUse" style="mask-type:luminance" key="a3w9zgi"><path fill="#fff" d="M116-.001H66v50h50z" key="09d01z7"/></mask><g mask="url(#g)" key="juel0wb"><path fill="#5A78FF" fill-rule="evenodd" d="M115.999 15.837q.001-.912-.004-1.813a78 78 0 0 0-.022-1.53 22.6 22.6 0 0 0-.292-3.326 11.3 11.3 0 0 0-1.042-3.163 10.66 10.66 0 0 0-4.649-4.644 11.1 11.1 0 0 0-3.16-1.044 23 23 0 0 0-3.326-.293 61 61 0 0 0-1.528-.02q-.907-.006-1.812-.005H81.835q-.907-.001-1.812.006-.765 0-1.529.02a23 23 0 0 0-3.326.292c-1.1.188-2.165.54-3.16 1.044a10.66 10.66 0 0 0-4.648 4.644 11.2 11.2 0 0 0-1.042 3.163q-.27 1.651-.292 3.325a72 72 0 0 0-.022 1.531q-.005.902-.004 1.813V34.16q-.001.912.004 1.813.001.767.022 1.53c.014 1.115.112 2.227.292 3.326.189 1.1.54 2.166 1.042 3.163a10.67 10.67 0 0 0 4.648 4.644c.995.505 2.06.856 3.16 1.044q1.651.273 3.326.293.764.019 1.528.02a189 189 0 0 0 1.813.005h18.328q.907.002 1.813-.006.764 0 1.528-.02a22 22 0 0 0 3.326-.292 11.2 11.2 0 0 0 3.16-1.044 10.67 10.67 0 0 0 4.648-4.644c.503-.997.853-2.062 1.042-3.163q.27-1.651.293-3.325c.013-.512.019-1.019.022-1.531q.005-.901.004-1.813z" clip-rule="evenodd" key="aev6ia2"/></g><path fill="url(#h)" fill-rule="evenodd" d="M88.504 11.24q-.227 0-.449.09l-9.214 3.833a1.17 1.17 0 0 0-.636.64c-.12.29-.12.611 0 .903l8.797 21.331c.249.603.939.889 1.536.64l9.213-3.834c.6-.25.885-.94.637-1.543L89.59 11.969a1.18 1.18 0 0 0-1.087-.729m-.412 28.904c-1 0-1.95-.595-2.356-1.58l-8.797-21.331a2.55 2.55 0 0 1 0-1.957c.26-.632.75-1.123 1.379-1.385l9.214-3.833a2.547 2.547 0 0 1 3.328 1.384l8.798 21.332a2.564 2.564 0 0 1-1.378 3.341l-9.214 3.834a2.5 2.5 0 0 1-.972.195z" clip-rule="evenodd" key="2rlurj1"/><path fill="url(#i)" fill-rule="evenodd" d="M96.309 25.625c-2.67 1.102-4.897 2.627-6.357 4.46L86.19 21.02c1.596-1.917 3.687-3.357 6.356-4.46s5.365-1.64 7.656-1.328l3.762 9.067c-2.379-.25-4.986.224-7.656 1.327" clip-rule="evenodd" key="gls413m"/><path fill="url(#j)" fill-rule="evenodd" d="M96.309 25.625c-2.67 1.102-4.897 2.627-6.357 4.46L86.19 21.02c1.596-1.917 3.687-3.357 6.356-4.46s5.365-1.64 7.656-1.328l3.762 9.067c-2.379-.25-4.986.224-7.656 1.327" clip-rule="evenodd" key="6odhf59"/><path fill="#fff" fill-rule="evenodd" d="M97.567 28.407c-2.883 0-5.521.551-7.568 1.675v-9.064c2.206-1.149 4.687-1.676 7.57-1.675s5.574.528 7.567 1.678v9.064c-2.1-1.126-4.687-1.677-7.57-1.678" clip-rule="evenodd" key="y4f7jyb"/></g></g></g><defs key="wobzx6b"><clipPath id="a" key="8fvg0e5"><path fill="#fff" d="M0 0h116v50H0z" key="0qc4268"/></clipPath><clipPath id="b" key="n19uhrw"><path fill="#fff" d="M0 0h50v50H0z" key="faqf6j3"/></clipPath><clipPath id="e" key="6ed7b6j"><path fill="#fff" d="M66 0h50v50H66z" key="70eon14"/></clipPath><radialGradient id="h" cx="0" cy="0" r="1" gradientTransform="rotate(-78.91 61.447 -45.2)scale(8.71581 6.82715)" gradientUnits="userSpaceOnUse" key="igmx8qj"><stop stop-color="#626262" key="pypo3ri"/><stop offset="1" stop-color="#fff" key="kgpjeha"/></radialGradient><radialGradient id="j" cx="0" cy="0" r="1" gradientTransform="matrix(0 5.72754 -13.2061 0 97.431 22.89)" gradientUnits="userSpaceOnUse" key="56d4fb3"><stop stop-color="#DAD7E2" key="zxh7rsw"/><stop offset=".58" stop-color="#D9D6E2" key="i5107yk"/><stop offset="1" stop-color="#fff" stop-opacity="0" key="gxgigvc"/></radialGradient><linearGradient id="i" x1="87.966" x2="96.058" y1="27.237" y2="21.671" gradientUnits="userSpaceOnUse" key="htxjmut"><stop stop-color="#D3D0DD" key="4gbudkk"/><stop offset="1" stop-color="#fff" key="5pcumtj"/></linearGradient></defs></svg>