<svg xmlns="http://www.w3.org/2000/svg" xml:space="preserve" viewBox="26 54.21 460 403.58" key="ia24tjb"><path d="M342.248 169.517c8.712 0 17.221.724 25.616 1.759C352.687 104.625 282.682 54.21 198.503 54.21c-95.28 0-172.502 64.541-172.502 144.134 0 45.889 25.819 86.602 65.866 112.945l-22.742 45.605 61.953-26.608c13.285 4.731 27.09 8.627 41.835 10.44-2.015-8.796-3.16-17.813-3.16-27.068 0-79.48 77.362-144.141 172.495-144.141m-86.245-50.451c11.905 0 21.56 9.685 21.56 21.623 0 11.942-9.654 21.62-21.56 21.62-11.912 0-21.563-9.678-21.563-21.62 0-11.939 9.651-21.623 21.563-21.623m-115.002 43.243c-11.907 0-21.562-9.678-21.562-21.62 0-11.938 9.656-21.623 21.562-21.623s21.563 9.685 21.563 21.623c-.001 11.942-9.658 21.62-21.563 21.62" fill="#51c332" key="lddmshs"/><path d="M485.999 313.656c0-63.684-64.376-115.312-143.751-115.312-79.378 0-143.745 51.628-143.745 115.312 0 63.679 64.367 115.308 143.745 115.308 13.054 0 25.471-1.845 37.519-4.465l77.483 33.291-26.798-53.701c33.583-21.106 55.547-53.562 55.547-90.433m-186.874-7.208c-11.906 0-21.563-9.681-21.563-21.625 0-11.938 9.656-21.616 21.563-21.616 11.91 0 21.561 9.682 21.561 21.616 0 11.945-9.653 21.625-21.561 21.625m86.248 0c-11.912 0-21.561-9.681-21.561-21.625 0-11.938 9.648-21.616 21.561-21.616 11.911 0 21.563 9.682 21.563 21.616 0 11.945-9.652 21.625-21.563 21.625" fill="#51c332" key="a5y9snr"/></svg>