<svg xmlns="http://www.w3.org/2000/svg" viewBox="0 0 256 256" key="lsk4jnd"><g stroke-miterlimit="10" font-family="none" font-size="none" font-weight="none" text-anchor="none" key="ce7xjxq"><path fill="none" fill-opacity="0" d="M-42.7 298.7V-42.7h341.4v341.4z" style="mix-blend-mode:normal" transform="matrix(.75 0 0 .75 32 32)" key="1kfefu4"/><path fill="red" d="M128 292.6a164.6 164.6 0 0 1 0-329.1 164.6 164.6 0 1 1 0 329.1" style="mix-blend-mode:normal" transform="matrix(.75 0 0 .75 32 32)" key="metvq4x"/><g fill="#fff" style="mix-blend-mode:normal" key="ipa9kmj"><path d="M117.6 221.2h19.6c-1.6-16 2.8-33.6 1.2-50a71.6 71.6 0 0 1 6.8-34.4c14-35.2 23.2-63.2 36-98.8H160c-12 30-24 60.8-32 91.6-14.8-24.4-20.8-48.8-28.4-73.6-.4-1.6-1.2-3.6-2.8-4.4-.8-.8-2-.8-3.2-.8-6.4-.4-12.4-.8-18.8-.4A743 743 0 0 1 116 165.6c.8 5.6 1.6 10.8 1.6 16.8z" key="ifi9zjl"/><path d="M180.8 36H160c-1.2 0-1.6.8-2 1.6a1008 1008 0 0 0-30.8 86.8 246.8 246.8 0 0 1-19.6-48l-4-13.2c-.8-4-1.6-8-3.6-11.2s-6-3.2-9.2-3.6a172 172 0 0 0-16 0c-1.6 0-2.4 1.6-1.6 2.8 10 22 18.8 44 26.8 66.8 7.2 21.6 16 44 16 67.6v36l.4 1.2 1.2.4h19.6c1.2 0 2-.8 2-2-1.2-13.2 1.2-26.8 1.6-40 0-6-.8-12 0-18 0-5.2.4-10 2-14.8l12.8-32 12.8-36 14.4-41.6c.4-1.2-.8-2.8-2-2.8m-28 74.8L140 144c-1.6 4.4-2.8 9.2-3.2 14l-.4 8v10c.8 14.8-2 29.2-1.2 44h-15.6c0-21.6 2-43.6-4-64.4A648 648 0 0 0 78.4 52h12c1.6 0 4.4 0 6 .8 1.2 1.2 1.6 3.6 2.4 5.2l7.2 24c5.2 16.8 11.6 33.2 20.4 48 .8 1.6 3.2 1.2 4 0a964 964 0 0 1 30.4-90h16.8c-8 24-16 47.2-24.8 70.8" key="6b5xvxz"/></g></g></svg>