<?xml version="1.0" encoding="UTF-8"?>
<svg version="1.1" xmlns="http://www.w3.org/2000/svg" width="114" height="114">
<path d="M0 0 C0.82306137 -0.00807175 1.64612274 -0.01614349 2.49412537 -0.02445984 C4.24353925 -0.03832348 5.99298044 -0.04903538 7.74243164 -0.05688477 C10.39848696 -0.07399262 13.05326323 -0.11784323 15.70898438 -0.16210938 C17.41014711 -0.17224543 19.11132043 -0.18075867 20.8125 -0.1875 C21.99266441 -0.21376213 21.99266441 -0.21376213 23.19667053 -0.24055481 C30.40205806 -0.21270665 35.42555688 2.14938518 40.87109375 6.80078125 C43.67652252 11.62261195 43.30741945 15.78905804 42.87109375 21.23828125 C43.80695312 21.66947266 43.80695312 21.66947266 44.76171875 22.109375 C47.75292622 23.71022492 48.5411463 25.11290475 49.87109375 28.23828125 C51.15504072 35.92649382 48.74549944 43.63736564 44.66796875 50.1640625 C40.39592246 55.61227343 35.47903002 57.72170571 28.87109375 59.23828125 C23.92109375 59.73328125 23.92109375 59.73328125 18.87109375 60.23828125 C17.55109375 67.16828125 16.23109375 74.09828125 14.87109375 81.23828125 C8.93109375 81.23828125 2.99109375 81.23828125 -3.12890625 81.23828125 C-2.79890625 78.26828125 -2.46890625 75.29828125 -2.12890625 72.23828125 C-7.73890625 72.23828125 -13.34890625 72.23828125 -19.12890625 72.23828125 C-20.24249361 68.89751916 -20.02718423 67.28845741 -19.52734375 63.83984375 C-19.36927246 62.73439209 -19.21120117 61.62894043 -19.04833984 60.48999023 C-18.86867676 59.29317627 -18.68901367 58.0963623 -18.50390625 56.86328125 C-18.3229541 55.62843994 -18.14200195 54.39359863 -17.95556641 53.12133789 C-16.07787506 40.51568516 -13.9364709 27.95548347 -11.69433594 15.40966797 C-11.31318616 13.27187194 -10.93898173 11.13282744 -10.57128906 8.99267578 C-10.39694336 7.99220215 -10.22259766 6.99172852 -10.04296875 5.9609375 C-9.89037598 5.072854 -9.7377832 4.18477051 -9.58056641 3.26977539 C-8.53904345 -1.41482598 -3.96811772 0.036597 0 0 Z " fill="#023188" transform="translate(45.12890625,17.76171875)"/>
<path d="M0 0 C3.21020798 0.22930057 4.05574452 1.06193835 6.25 3.5 C9.42840894 9.85681787 8.51319525 15.07643182 6.3125 21.6875 C3.72868885 28.1925175 0.50238863 32.90362446 -6 36 C-11.85689955 38.06714102 -16.5356567 38.35356567 -23 39 C-24.32 45.93 -25.64 52.86 -27 60 C-32.94 60 -38.88 60 -45 60 C-44.54525014 56.39534944 -44.08628831 52.79131493 -43.625 49.1875 C-43.49867187 48.18267578 -43.37234375 47.17785156 -43.2421875 46.14257812 C-42.58535317 41.03569122 -41.87090608 35.94228813 -41.0234375 30.86328125 C-40.87567871 29.97552002 -40.72791992 29.08775879 -40.57568359 28.1730957 C-40 26 -40 26 -38 24 C-35.31546549 23.7939502 -32.68759207 23.6812546 -30 23.625 C-21.63161685 23.28407889 -15.0093237 22.0292668 -8.1875 16.875 C-4.37378977 11.86269513 -1.31672952 6.1972161 0 0 Z " fill="#029CDD" transform="translate(87,39)"/>
<path d="M0 0 C1.9190918 -0.00386719 1.9190918 -0.00386719 3.87695312 -0.0078125 C4.87988403 -0.00152832 4.87988403 -0.00152832 5.90307617 0.00488281 C7.93113522 0.01553006 9.95829766 0.00501533 11.98632812 -0.0078125 C13.26958984 -0.00523438 14.55285156 -0.00265625 15.875 0 C17.05102783 0.00225586 18.22705566 0.00451172 19.4387207 0.00683594 C22.58257119 0.26124326 24.80300557 0.92419867 27.63671875 2.265625 C27.3706942 9.44828795 25.1286896 14.6288322 20.63671875 20.265625 C13.64777928 26.22637059 6.19069756 27.57575534 -2.73828125 27.390625 C-3.56972656 27.38160156 -4.40117188 27.37257813 -5.2578125 27.36328125 C-7.29309462 27.3398872 -9.32822689 27.30402225 -11.36328125 27.265625 C-10.88179077 21.05693194 -10.2350701 14.87793518 -9.42578125 8.703125 C-9.27238281 7.52621094 -9.11898437 6.34929688 -8.9609375 5.13671875 C-7.80371231 -0.42250032 -5.07073646 0.00975477 0 0 Z " fill="#00226A" transform="translate(59.36328125,35.734375)"/>
</svg>
