<?xml version="1.0" encoding="UTF-8"?>
<svg version="1.1" xmlns="http://www.w3.org/2000/svg" width="284" height="284">
<path d="M0 0 C93.72 0 187.44 0 284 0 C284 93.72 284 187.44 284 284 C190.28 284 96.56 284 0 284 C0 190.28 0 96.56 0 0 Z " fill="#08297B" transform="translate(0,0)"/>
<path d="M0 0 C10.98080573 8.56256087 17.96404583 22.0854018 19.765625 35.7109375 C21.27845348 51.3987616 17.72903208 64.74023038 8.05078125 77.25390625 C-0.50299313 87.42678792 -11.09860061 93.37925362 -23.94921875 96.66796875 C-25.90645058 96.73686739 -27.86599271 96.759696 -29.82421875 96.73046875 C-38.12782363 97.1159146 -43.71031513 103.00972309 -49.87597656 108.02929688 C-53.15881802 110.62402508 -56.6076998 112.95292118 -60.07421875 115.29296875 C-60.72890137 115.74679932 -61.38358398 116.20062988 -62.05810547 116.66821289 C-65.31343783 118.92143885 -68.58843271 121.06954562 -71.99609375 123.0859375 C-78.97278267 127.17884935 -78.97278267 127.17884935 -83.015625 133.9140625 C-83.26526411 136.27118126 -83.44644811 138.6364476 -83.5625 141.00390625 C-84.53742834 150.24110611 -90.10229015 158.92448301 -96.91796875 165.05859375 C-100.12676396 167.60094688 -103.29437826 169.81243435 -106.94921875 171.66796875 C-107.57828125 171.98765625 -108.20734375 172.30734375 -108.85546875 172.63671875 C-117.78578793 176.34623595 -129.80956225 176.09194806 -138.94921875 173.10546875 C-148.92696504 168.79689649 -158.06313491 160.44013643 -162.94921875 150.66796875 C-164.37777393 146.98380012 -164.94921875 144.6646388 -164.94921875 140.66796875 C-166.08230469 140.31734375 -167.21539062 139.96671875 -168.3828125 139.60546875 C-176.08162494 137.03869583 -183.52512476 133.78771452 -191.01171875 130.66796875 C-193.29368539 129.71926695 -195.57602885 128.77149297 -197.85899353 127.82519531 C-199.26991923 127.2401411 -200.68025412 126.65365907 -202.08985901 126.06542969 C-206.67359051 124.16181356 -211.2940644 122.38986694 -215.94921875 120.66796875 C-212.21408484 142.13515942 -197.70627188 162.27373716 -182.94921875 177.66796875 C-182.19253906 178.4878125 -181.43585938 179.30765625 -180.65625 180.15234375 C-158.93171273 202.97551178 -128.57421276 215.00599565 -97.94921875 219.66796875 C-97.94921875 219.99796875 -97.94921875 220.32796875 -97.94921875 220.66796875 C-139.19921875 220.66796875 -180.44921875 220.66796875 -222.94921875 220.66796875 C-222.94921875 170.50796875 -222.94921875 120.34796875 -222.94921875 68.66796875 C-218.5274173 69.55232904 -214.7820828 70.84584468 -210.67578125 72.58984375 C-209.96715439 72.88650436 -209.25852753 73.18316498 -208.52842712 73.48881531 C-207.00263186 74.12832564 -205.47773109 74.76997352 -203.9536438 75.4135437 C-201.55431684 76.42636993 -199.15239151 77.43279456 -196.74975586 78.43774414 C-189.50697034 81.47052954 -182.27316584 84.52362836 -175.05419922 87.61270142 C-172.21361254 88.82751505 -169.37052055 90.03640192 -166.52728271 91.24499512 C-164.54397316 92.09169887 -162.56522581 92.94848571 -160.58642578 93.80566406 C-159.38743652 94.31581055 -158.18844727 94.82595703 -156.953125 95.3515625 C-155.90970947 95.80072021 -154.86629395 96.24987793 -153.79125977 96.71264648 C-150.93713652 97.67203007 -148.93162878 97.96707907 -145.94921875 97.66796875 C-145.22734375 97.23484375 -144.50546875 96.80171875 -143.76171875 96.35546875 C-136.5885706 92.05157986 -129.17463858 91.19544463 -120.94921875 91.66796875 C-120.67698486 91.09699463 -120.40475098 90.52602051 -120.12426758 89.93774414 C-118.92775346 87.62650546 -117.59460105 85.5147851 -116.1484375 83.3515625 C-115.58938721 82.51359131 -115.03033691 81.67562012 -114.4543457 80.81225586 C-113.85452881 79.91901611 -113.25471191 79.02577637 -112.63671875 78.10546875 C-112.01949951 77.1832251 -111.40228027 76.26098145 -110.76635742 75.31079102 C-106.46061965 68.88916582 -102.12350845 62.48913949 -97.76171875 56.10546875 C-97.22184326 55.31519287 -96.68196777 54.52491699 -96.12573242 53.71069336 C-92.19803417 47.98282615 -92.19803417 47.98282615 -90.32299805 45.61010742 C-88.45750916 42.97282928 -88.31837419 40.73462513 -87.94921875 37.54296875 C-85.90022309 22.75384685 -80.26445801 10.76439039 -68.94921875 0.66796875 C-61.70765632 -4.56972203 -53.70340735 -8.43711744 -44.94921875 -10.33203125 C-44.14355469 -10.5125 -43.33789062 -10.69296875 -42.5078125 -10.87890625 C-27.28170192 -13.57543881 -12.50224835 -8.54362061 0 0 Z " fill="#FDFCFD" transform="translate(222.94921875,63.33203125)"/>
<path d="M0 0 C43.23 0 86.46 0 131 0 C131 43.23 131 86.46 131 131 C130.67 131 130.34 131 130 131 C129.82984375 129.71867188 129.6596875 128.43734375 129.484375 127.1171875 C128.0579488 116.77409286 126.33925306 106.92096923 123 97 C122.49726563 95.47632812 122.49726563 95.47632812 121.984375 93.921875 C115.02541359 74.41718034 104.13541573 58.00643607 90 43 C89.3503125 42.27425781 88.700625 41.54851563 88.03125 40.80078125 C65.55358994 16.72374922 32.14021421 4.19485231 0 1 C0 0.67 0 0.34 0 0 Z " fill="#FFFFFF" transform="translate(153,0)"/>
<path d="M0 0 C0.33 0 0.66 0 1 0 C1 43.23 1 86.46 1 131 C-40.58 131 -82.16 131 -125 131 C-125 130.67 -125 130.34 -125 130 C-123.97003906 129.84144531 -122.94007813 129.68289063 -121.87890625 129.51953125 C-94.47963637 125.11601913 -70.18054283 115.22125192 -49 97 C-48.04480469 96.19046875 -47.08960938 95.3809375 -46.10546875 94.546875 C-18.40934789 70.5140492 -3.87084957 35.88505245 0 0 Z " fill="#FFFFFF" transform="translate(283,153)"/>
<path d="M0 0 C43.23 0 86.46 0 131 0 C131 0.33 131 0.66 131 1 C130.1793103 1.09704224 130.1793103 1.09704224 129.34204102 1.19604492 C90.8727882 5.87566062 55.39315192 22.30440504 31.0234375 53.31640625 C25.30508993 60.90039232 20.30884716 68.52520113 16 77 C15.4328125 78.08667969 14.865625 79.17335938 14.28125 80.29296875 C7.10430338 94.49886337 2.70198746 110.1832545 1 126 C0.67 126 0.34 126 0 126 C0 84.42 0 42.84 0 0 Z " fill="#FFFFFF" transform="translate(0,0)"/>
<path d="M0 0 C5.99014917 4.33452253 9.27621321 9.84985479 11 17 C12.13698066 25.87313772 10.82372398 33.71575545 5.52734375 41.03515625 C0.50166754 46.63112195 -5.58330168 49.49849103 -13.02734375 50.34375 C-22.69787901 50.63642698 -29.12584656 48.55410367 -36.23828125 41.97265625 C-41.90291282 35.62977611 -43.367325 28.424992 -43.27734375 20.13671875 C-42.60122561 12.48991776 -38.60475852 6.12549175 -33 1 C-23.13555581 -6.03991787 -10.3928652 -6.07000966 0 0 Z " fill="#FDFCFD" transform="translate(205,83)"/>
<path d="M0 0 C8.5370869 6.29124279 13.91539914 14.1047654 16.37890625 24.45703125 C17.71185723 34.8486083 15.29787186 43.82778883 9.12890625 52.26953125 C2.287983 60.38588087 -5.94672412 65.47262258 -16.60546875 66.83984375 C-26.92451264 67.24084286 -35.65896415 64.14332321 -43.55078125 57.49609375 C-51.36925393 49.79563575 -55.42530942 40.98326629 -56.05859375 30.01953125 C-55.63691061 20.19782816 -51.53359028 11.34309376 -44.62109375 4.45703125 C-31.40465549 -6.9379819 -15.32669854 -9.02242313 0 0 Z M-41.62109375 13.45703125 C-46.32781922 20.84943868 -47.3621392 27.77621308 -46.62109375 36.45703125 C-44.92448279 43.69317919 -41.46860502 48.90332942 -35.62109375 53.45703125 C-27.94921317 57.96990218 -19.54692993 58.84838741 -10.859375 56.80859375 C-3.92593291 54.32402185 0.96676407 50.58701949 4.6953125 44.203125 C8.43917675 36.07620017 8.77662626 27.58948789 5.81640625 19.14453125 C2.72593983 12.4359578 -1.6000203 8.10999767 -8.30859375 5.01953125 C-20.98025151 0.54491238 -32.77519494 3.55197826 -41.62109375 13.45703125 Z " fill="#0B1661" transform="translate(208.62109375,75.54296875)"/>
<path d="M0 0 C8.84734632 2.00166206 16.46086902 7.6866345 21.48046875 15.22265625 C25.49240088 22.97133384 26.34981985 31.22517029 23.875 39.625 C20.51839927 48.54441791 13.96696754 55.3885945 5.3125 59.3125 C-2.88055412 62.32194267 -10.61808593 61.97195344 -18.5703125 58.40234375 C-24.66215963 54.88630979 -29.73433217 50.78520314 -32 44 C-27.84368109 45.33573777 -23.83039263 46.85655066 -19.8125 48.5625 C-12.76585283 51.5495693 -6.89689249 53.68308009 0.63671875 51.09375 C7.19542911 48.03497925 11.15161144 44.87281413 14.3125 38.25 C15.85402945 30.96276987 15.75610473 24.60556349 12 18 C5.88888788 9.91756139 -5.79580473 6.46175486 -15 3 C-10.32424135 -1.09944421 -5.95133892 -0.68151151 0 0 Z " fill="#103BAB" transform="translate(104,166)"/>
</svg>
